<?xml version="1.0" standalone="no"?>
<!DOCTYPE svg PUBLIC "-//W3C//DTD SVG 1.1//EN" "http://www.w3.org/Graphics/SVG/1.1/DTD/svg11.dtd" >
<svg xmlns="http://www.w3.org/2000/svg">
<metadata>
This is a custom SVG webfont generated by Font Squirrel.
Copyright   : Converted by ALLTYPE
</metadata>
<defs>
<font id="webfontQ0wT9o6u" horiz-adv-x="569" >
<font-face units-per-em="2048" ascent="1638" descent="-410" />
<missing-glyph horiz-adv-x="500" />
<glyph unicode=" " />
<glyph unicode="!" horiz-adv-x="598" d="M174 102q0 51 38 88t89 37q53 0 90 -36.5t37 -90.5q0 -51 -37 -88t-90 -37q-51 0 -89 37t-38 88v2zM258 1421h90q35 -2 52.5 -19.5t17.5 -53.5v-13l-72 -911q-2 -29 -8 -38t-23 -9l-32 2q-12 -2 -17.5 7t-7.5 32l-70 911v2v4q-2 2 -2 4v4q0 39 17.5 57.5t54.5 18.5v2z " />
<glyph unicode="&#x22;" horiz-adv-x="835" d="M211 803l-53 297q-14 66 -18.5 93.5t-4.5 45.5v11v12q0 61 24.5 91.5t71.5 30.5t75 -29.5t28 -82.5q0 -16 -1 -35.5t-5 -40.5l-19 -98l-55 -295h-43zM578 803l-54 293l-20 102q-2 10 -3 23.5t-1 27.5q0 72 24.5 103.5t77.5 31.5q47 0 72.5 -29.5t25.5 -82.5v-32 q0 -19 -4 -44l-7 -60q-3 -26 -7 -42l-57 -291h-47z" />
<glyph unicode="#" horiz-adv-x="1368" d="M90 973h326l86 403h121l-86 -403h421l84 403h123l-86 -403h199v-123h-223l-76 -371h299v-123h-324l-84 -401h-122l86 401h-424l-84 -401h-123l84 401h-197v123h223l78 371h-301v123zM512 850l-78 -369h424l76 369h-422z" />
<glyph unicode="$" horiz-adv-x="1130" d="M451 1397v-76q18 2 31.5 3t23.5 3h21h26h26h21q12 -2 24.5 -3t28.5 -5v78h76v-92q90 -29 156.5 -79t85.5 -106q4 -10 6 -20t2 -21q0 -33 -20.5 -56.5t-49.5 -23.5q-37 0 -69.5 29t-55.5 78q-6 16 -10 24.5t-4 10.5q-4 12 -11 22.5t-18 18.5l-5 5q-3 3 -7 5v-461 q133 -45 210 -141t77 -221q0 -131 -79 -233.5t-208 -137.5v-229h-76v215q-14 -2 -24.5 -3t-20.5 -1q-10 -2 -19 -3h-22h-19h-18q-18 2 -37.5 3.5t-41.5 5.5v-217h-74v233q-88 23 -155.5 71t-94.5 101q-8 14 -12 28.5t-4 28.5q0 37 28.5 66t65.5 29q31 0 49 -12.5t37 -49.5 l10 -24q6 -14 12 -33q2 -4 3 -7t1 -7q10 -23 19.5 -39.5t23.5 -28.5q4 -4 8.5 -7t8.5 -7v546l-6 2q-27 10 -48 23l-40 23q-41 27 -68 55t-47 67q-18 35 -27.5 75t-9.5 83q0 115 62.5 195t183.5 120v97h74zM451 625v-545q16 -6 30.5 -9t28.5 -5q18 -4 38.5 -5.5t45.5 -1.5h14 q6 0 13 2q8 0 15 1t17 1v492l-18 6l-88 29l-90 33zM729 522v-438q72 31 116 92.5t44 130.5q0 72 -37 121t-123 92v2zM451 1231v-404q14 -8 24 -12t21 -6l2 -2q14 -4 28.5 -9t34.5 -14l47 -12l45 -16v473q-10 2 -19 5t-18 5q-14 2 -28.5 3t-34.5 1h-26q-11 0 -23 -2l-24 -5 l-29 -7v2zM377 860v348q-57 -29 -89 -71.5t-32 -100.5q0 -57 30.5 -102t90.5 -76v2z" />
<glyph unicode="%" horiz-adv-x="1855" d="M510 -45h-109l945 1491h108zM1223 352q6 156 90 254.5t211 98.5q129 0 214 -103.5t85 -261.5q0 -156 -85 -258t-214 -102q-131 0 -216 99t-85 255v18zM1376 356v-14q0 -160 36 -235.5t110 -75.5t110.5 73.5t36.5 223.5q0 170 -36 246.5t-113 76.5q-72 0 -107 -71.5 t-37 -225.5v2zM55 1006q8 156 91 254t210 98q129 0 214 -103.5t85 -261.5q0 -156 -85 -259t-214 -103q-131 0 -216 100t-85 256v19zM211 1010v-17q0 -158 35 -233.5t110 -75.5q74 0 110 73.5t36 223.5q0 170 -35 247t-113 77q-72 0 -106.5 -72t-36.5 -225v2z" />
<glyph unicode="&#x26;" horiz-adv-x="1536" d="M1047 899h428v-78q-43 -10 -72 -22.5t-55 -40.5q-23 -27 -47.5 -66t-57.5 -100l-20 -37l-21 -37l-23 -37l-24 -37q-16 -27 -33.5 -52t-34.5 -46l11 -10l63 -78l16 -18q7 -8 13 -17q43 -45 88 -72.5t102 -41.5q49 -10 71 -30t22 -50q0 -27 -21.5 -39.5t-69.5 -12.5h-69 q-57 0 -98 7.5t-78 21.5q-16 8 -33 17.5t-33 21.5q-41 29 -70.5 58.5t-58.5 72.5q-63 -57 -119.5 -97t-111.5 -65q-49 -18 -99.5 -28.5t-105.5 -10.5q-188 0 -311 105.5t-123 271.5q0 45 9 84t32 78q20 33 50 67.5t73 73.5q18 18 32.5 30.5l28.5 23.5q2 4 5 6t5 4 q20 16 47 35l72 49l23 18q-78 86 -114 151.5t-36 125.5q0 31 12.5 62.5t34.5 64.5q14 20 34.5 41.5t45.5 42.5q16 14 34.5 27.5t35.5 23.5q53 35 104 53.5t94 18.5q59 0 108.5 -29t94.5 -92q23 -31 36 -57.5t19 -51.5q2 -8 3 -17t1 -20q0 -29 -10 -55.5t-31 -52.5 q-8 -10 -18 -20.5t-23 -20.5l-26 -23l-25 -20q-6 -4 -11 -7t-9 -8q-23 -16 -50 -33l-69 -44l7 -8q3 -3 7 -5l28 -27q13 -13 26 -28q29 -31 57 -68l65 -88l30 -40l30 -44q2 -4 5 -7t5 -7l51 -75q25 -36 41 -62l23 35q57 82 86 145.5t29 102.5q0 41 -34 72.5t-93 41.5v80z M504 764q-86 -61 -138.5 -113.5t-76.5 -103.5q-10 -23 -15.5 -46.5t-5.5 -47.5q0 -125 113 -225.5t250 -100.5q37 0 68.5 6t62.5 19q31 14 62.5 35.5t68.5 54.5q-10 18 -29 48l-39 62q0 2 -2 4t-2 4l-16 27l-17 25q-4 6 -7 11t-7 9l-43 62l-45 59q-49 66 -97 121t-85 88v2z M625 942q51 29 87 56.5t56 54.5q18 23 26.5 45t8.5 45v8q0 4 -2 8q-2 25 -17.5 51.5t-44.5 57.5q-14 16 -26.5 27.5t-24.5 17.5q-12 8 -24.5 11t-26.5 3q-12 0 -27.5 -3t-29.5 -7t-29.5 -11.5t-28.5 -17.5q-35 -25 -54 -55.5t-19 -65.5q0 -37 41.5 -94t115.5 -119 q4 -4 9.5 -7t9.5 -7v2z" />
<glyph unicode="'" horiz-adv-x="368" d="M162 803l-56 297l-18 100q-2 10 -3 23.5t-1 27.5q0 70 23.5 101.5t74.5 31.5q47 0 75 -29.5t28 -82.5q0 -14 -2 -33.5t-7 -40.5l-18 -100l-53 -295h-43z" />
<glyph unicode="(" horiz-adv-x="788" d="M694 1425l64 -82l-15 -12l-130 -117q-50 -47 -87 -90q-14 -18 -28 -39l-29 -41q-4 -6 -8 -13t-8 -13q-31 -51 -54.5 -105.5t-40.5 -113.5q-16 -63 -26 -138t-10 -153q0 -264 112.5 -472t323.5 -337l-64 -78q-246 150 -372.5 377t-126.5 518q0 279 118.5 495t380.5 412v2z " />
<glyph unicode=")" horiz-adv-x="788" d="M96 -379l-65 82l16 12q80 68 129 115t84 88q16 18 29.5 36.5t25.5 39.5q6 6 11.5 15l11.5 18q31 51 54.5 105t37.5 112q18 66 27.5 140.5t9.5 150.5q0 266 -111.5 474t-324.5 339l65 77q244 -152 371 -378t127 -519q0 -279 -118 -493.5t-380 -413.5z" />
<glyph unicode="*" horiz-adv-x="1024" d="M508 868l-268 -233l-45 49l176 293l-332 139l20 58l338 -5l56 324h59l76 -305l323 55l15 -57l-279 -189l168 -313l-43 -49z" />
<glyph unicode="+" horiz-adv-x="1366" d="M137 727h477v479h131v-479h482v-131h-482v-475h-131v475h-477v131z" />
<glyph unicode="," horiz-adv-x="598" d="M68 -313v75q143 14 215.5 66.5t72.5 142.5q0 57 -18.5 85t-63.5 30l-26 2q-53 2 -85 33t-32 82q0 59 38 94t95 35q90 0 151.5 -86t61.5 -213q0 -162 -107 -253t-302 -93z" />
<glyph unicode="-" horiz-adv-x="747" d="M59 408v155h629v-155h-629z" />
<glyph unicode="." horiz-adv-x="598" d="M172 102q0 51 38 88t89 37q53 0 90 -36.5t37 -90.5q0 -51 -37 -88t-90 -37q-51 0 -89 37t-38 88v2z" />
<glyph unicode="/" d="M600 1423l-489 -1452h-142l492 1452h139z" />
<glyph unicode="0" horiz-adv-x="1130" d="M98 627q0 305 136.5 518t332.5 213q201 0 333 -186.5t132 -471.5q0 -303 -137 -514t-334 -211q-195 0 -329 188.5t-134 461.5v2zM295 705q4 -193 25.5 -308.5t72.5 -214.5q33 -63 80 -98t105 -35q66 0 122 47t86 129q29 76 40.5 164t11.5 213q0 324 -76 498t-219 174 q-59 0 -113.5 -43t-83.5 -115q-29 -68 -41 -149.5t-12 -218.5v-12q0 -5 2 -11v-10v-13v3z" />
<glyph unicode="1" horiz-adv-x="1130" d="M674 1360v-1090q0 -102 39 -150t118 -48l29 2v-74h-579v74h38q84 -2 124 45t40 149v719q0 100 -32.5 146.5t-104.5 46.5l-59 2v73h18q72 -2 129.5 11.5t110.5 44.5q18 10 34.5 21t34.5 26z" />
<glyph unicode="2" horiz-adv-x="1130" d="M1032 338l-100 -338h-832v74l29 29l25 28l1 1l3 3l38 41l56 57q27 25 54.5 53.5t60.5 59.5l99 98l71 74q2 4 5 7l7 7l30 34l33 38q29 33 51.5 62.5l41.5 56.5q25 33 41 70.5t24 76.5l4 33q2 16 2 33q0 111 -69.5 190.5t-167.5 79.5q-106 0 -198.5 -79.5t-156.5 -227.5 l-75 33q74 203 198.5 314.5t280.5 111.5q160 0 272.5 -111.5t112.5 -269.5q0 -16 -1 -32.5t-5 -33.5q-10 -55 -34 -106t-59 -94q-27 -33 -61.5 -66t-75.5 -67l-162 -136q-14 -14 -29 -27l-30 -26q-63 -55 -115.5 -106.5l-83.5 -83.5q-2 -4 -9 -12.5t-17 -22.5l430 2 q88 -2 134 24.5t85 102.5q6 10 11 20.5t10 22.5z" />
<glyph unicode="3" horiz-adv-x="1130" d="M360 625l-32 67l24 15l121 71q41 25 68 45q4 2 8 5t8 8l17 13l20 15q59 47 87 95.5t28 99.5q0 72 -52.5 121t-128.5 49q-72 0 -149.5 -41t-157.5 -119l-21 -22l-24 -25l-57 47q2 2 5 6t7 8q37 53 89 104.5t108 90.5q4 2 8 5t8 5q43 29 95.5 46.5t107.5 23.5q10 0 21.5 1 t21.5 1q135 0 221 -68.5t86 -177.5q0 -31 -7 -58.5t-24 -56.5q-23 -39 -65.5 -79.5t-112.5 -90.5l-29 -14l5 -4q12 0 22 1t19 1q121 0 206.5 -96t85.5 -232q0 -207 -173 -358.5t-410 -151.5q-14 0 -27.5 1t-28.5 1q-78 8 -150.5 31t-119.5 58l41 61q47 -25 86 -39t76 -22 q23 -4 44 -6.5t46 -2.5q176 0 301 113t125 268q0 111 -67.5 185.5t-168.5 74.5q-47 0 -100 -19.5t-111 -55.5v2z" />
<glyph unicode="4" horiz-adv-x="1130" d="M831 383v-113q0 -106 33 -152t107 -46l41 2v-74h-555v74h43q72 -2 104.5 44t32.5 150v115h-559v119l588 858h165v-877h17q47 -2 75.5 29t49.5 100l69 2l-30 -231h-181zM637 483v699h-4l-471 -699h475z" />
<glyph unicode="5" horiz-adv-x="1130" d="M287 1335h504q61 -2 83.5 3t34.5 20l70 2l-39 -191h-614l-62 -272l80 28q33 11 64 17q23 4 45 5t49 1q201 0 337 -135t136 -332q0 -219 -166 -362.5t-418 -143.5q-23 0 -45 1t-45 4q-45 6 -90 14t-90 22l31 72q59 -16 106 -23.5t88 -7.5q178 0 305 117t127 279 q0 145 -95 240t-243 95q-63 0 -117.5 -17t-107.5 -56l-13 -9q-7 -5 -14 -12l-47 15z" />
<glyph unicode="6" horiz-adv-x="1130" d="M899 1360v-72q-8 -2 -16.5 -3t-14.5 -1q-27 -2 -45 -5t-35 -7q-12 -2 -24 -5l-27 -7q-88 -27 -163.5 -84.5t-127.5 -133.5q-37 -57 -63.5 -129.5t-36.5 -148.5l4 -2q31 29 61.5 52.5t59.5 39.5q45 27 91 38t95 11q158 0 262.5 -123t104.5 -309q0 -205 -124 -350.5 t-296 -145.5q-86 0 -167 38t-148 108q-80 86 -118 194.5t-38 249.5q0 139 36 253t116 220q70 96 155.5 164t188.5 107q63 23 129.5 35t140.5 14v2zM332 621q-2 -25 -2 -40v-28v-9v-12q0 -205 77.5 -340t196.5 -135q102 0 162.5 100.5t60.5 268.5t-64.5 271.5t-168.5 103.5 q-76 0 -142.5 -46t-119.5 -137v3z" />
<glyph unicode="7" horiz-adv-x="1130" d="M606 0h-200v23q0 88 31.5 206.5t88.5 262.5q27 66 68 151l86 176l20 41q10 20 21 39l70 134q35 65 65 114l14 24h-464q-98 -2 -150.5 -43t-79.5 -139l-76 2l84 369h49q4 -4 7.5 -6t7.5 -4q23 -10 50.5 -13.5t86.5 -3.5l606 2v-106q-10 -18 -18 -31l-17 -24q-2 -2 -4 -5.5 t-2 -7.5q-10 -16 -19 -35l-24 -45l-27 -56l-26 -54l-41 -99q-20 -49 -39 -104q-12 -31 -22.5 -63.5l-22.5 -67.5q-61 -197 -90 -343.5t-33 -283.5v-5v-5z" />
<glyph unicode="8" horiz-adv-x="1130" d="M410 680l-29 18q-31 14 -55.5 30.5t-44.5 33.5q-39 29 -63.5 59.5t-41.5 69.5q-12 29 -18 57.5t-6 59.5q0 145 122.5 248.5t296.5 103.5q170 0 288 -94.5t118 -227.5q0 -94 -60.5 -165.5t-191.5 -127.5q145 -72 217 -169t72 -220q0 -168 -125 -274.5t-322 -106.5 q-190 0 -318 101.5t-128 253.5q0 12 1 24.5t3 22.5q6 31 17.5 60.5t29.5 56.5q25 37 53.5 66.5t71.5 55.5q18 12 42 25l50 27zM524 629l-35 16q-100 -47 -154 -125t-54 -174q0 -131 84 -214t219 -83q125 0 204.5 68.5t79.5 175.5q0 86 -56 155.5t-171 122.5zM612 801l33 -17 q92 41 138 101.5t46 138.5q0 109 -76.5 179.5t-195.5 70.5q-100 0 -170 -58.5t-70 -144.5q0 -51 28 -99t79 -83q6 -4 13 -8t14 -9q2 -2 5 -3t5 -3q20 -12 53 -26l98 -41v2z" />
<glyph unicode="9" horiz-adv-x="1130" d="M231 -25v72q8 -2 16.5 -1t14.5 1q27 2 45.5 5t36.5 7q10 2 22.5 5.5t24.5 7.5q88 29 165 85t126 132q39 59 65.5 131t36.5 147l-4 6q-29 -31 -57.5 -53t-56.5 -39q-47 -27 -94.5 -40t-100.5 -13q-156 0 -260.5 123t-104.5 309q0 205 123 351.5t295 146.5h12h11 q80 -6 157.5 -44t139.5 -104q78 -82 115.5 -193.5t37.5 -252.5q0 -137 -36.5 -250t-114.5 -221q-70 -96 -156 -163t-188 -105q-63 -25 -130 -36.5t-141 -13.5zM797 715q2 20 2 36v27v9v12q0 205 -78 340t-197 135q-102 0 -161.5 -99.5t-59.5 -269.5q0 -168 64.5 -271.5 t169.5 -103.5q74 0 140 47.5t120 135.5v2z" />
<glyph unicode=":" horiz-adv-x="598" d="M172 102q0 51 38 88t89 37q53 0 90 -36.5t37 -90.5q0 -51 -37 -88t-90 -37q-51 0 -89 37t-38 88v2zM172 817q0 51 38 88t89 37q53 0 90 -37t37 -90q0 -51 -37 -89t-90 -38q-51 0 -89 38t-38 89v2z" />
<glyph unicode=";" horiz-adv-x="598" d="M82 -313v75q143 14 216 66.5t73 142.5q0 57 -18.5 85t-63.5 30l-27 2q-53 2 -85 33t-32 82q0 59 38 94t96 35q90 0 151.5 -86t61.5 -213q0 -162 -107.5 -253t-302.5 -93zM180 817q0 51 38 88t89 37q53 0 90 -37t37 -90q0 -51 -37 -89t-90 -38q-51 0 -89 38t-38 89v2z" />
<glyph unicode="&#x3c;" horiz-adv-x="1366" d="M1227 147l-1086 457v119l1086 457v-144l-910 -372l910 -375v-142z" />
<glyph unicode="=" horiz-adv-x="1366" d="M139 498h1086v-131h-1086v131zM139 967h1086v-133h-1086v133z" />
<glyph unicode="&#x3e;" horiz-adv-x="1366" d="M141 1180l1084 -459v-117l-1084 -457v142l908 373l-908 374v144z" />
<glyph unicode="?" horiz-adv-x="788" d="M141 102q0 51 38 88t89 37q53 0 90 -36.5t37 -90.5q0 -51 -36.5 -88t-90.5 -37q-51 0 -89 37t-38 88v2zM299 348h-76q2 10 2 20v15v7v7q0 20 -1 42t-3 42q-2 23 -5 43.5t-7 40.5l-12 62l-1 2q-1 2 -1 4v9v7q0 25 10 36t43 22q8 2 17 4t22 4l38.5 9t41.5 11 q33 10 65.5 23.5t56.5 27.5q39 20 67 57.5t36 78.5q2 8 3 16t1 16q0 23 -6 46.5t-17 50.5q-10 27 -27.5 54.5t-39.5 49.5q-25 27 -51.5 46.5t-55.5 31.5q-20 8 -39.5 13t-37.5 5q-8 0 -16.5 -1t-16.5 -1l-17 -4q-8 -2 -16 -6l-51 -18q-8 -6 -20.5 -8.5t-24.5 -2.5 q-39 0 -63.5 23.5t-24.5 62.5q0 55 49 89t131 34q33 0 62.5 -6t56.5 -18q20 -8 38.5 -19.5t39.5 -27.5q31 -23 58.5 -50.5t51.5 -58.5l18 -22q9 -12 17 -27q16 -23 31.5 -50.5t29.5 -56.5q14 -25 25.5 -50t19.5 -48q10 -29 16.5 -60.5t6.5 -64.5q0 -113 -66.5 -184.5 t-224.5 -126.5q-4 -2 -7 -3t-5 -1q-72 -29 -95.5 -68t-25.5 -131v2z" />
<glyph unicode="@" horiz-adv-x="1886" d="M1413 958l-117 -399l-61 -215q-14 -53 -21.5 -93t-11.5 -69v-2q0 -35 21.5 -57.5t54.5 -22.5q27 0 55.5 9.5t59.5 25.5q37 18 71.5 47t63.5 64q74 90 119 208.5t53 245.5q2 12 2 26v26q0 270 -181.5 443t-465.5 173q-360 0 -609 -276.5t-249 -675.5q0 -352 218 -574.5 t564 -222.5q272 0 481 143.5t322 407.5l57 2q-90 -279 -325.5 -446.5t-540.5 -167.5q-377 0 -625 250.5t-248 633.5q0 412 274.5 695.5t672.5 283.5q319 0 516.5 -190.5t197.5 -495.5q0 -291 -161.5 -498.5t-389.5 -207.5q-76 0 -114.5 34.5t-38.5 104.5v16v15q2 23 6 47 t12 63l-4 6l-56 -71q-22 -27 -40 -47l-8 -9q-4 -4 -9 -6l-21 -21q-11 -11 -26 -24q-20 -18 -42 -34l-42 -29q-39 -20 -75.5 -32.5t-69.5 -12.5q-78 0 -130 66.5t-52 166.5q0 55 14 115.5t39 122.5q35 82 85 158.5t114 142.5q18 18 35.5 33.5t35.5 29.5q59 47 117.5 73 t110.5 26q70 0 112.5 -35t57.5 -105l4 2l30 111zM1061 918q-18 -2 -36.5 -7.5t-37.5 -15.5q-25 -12 -48.5 -30.5t-43.5 -43.5q-45 -53 -86 -118.5t-74 -135.5q-35 -76 -56.5 -148.5t-21.5 -125.5q0 -59 34 -101t83 -42q59 0 126 48t138 144q16 20 28 39l21 35l19.5 36.5 t17.5 41.5l9 23q4 11 8 26q23 72 34 128t11 97q0 66 -35 106.5t-90 40.5v3z" />
<glyph unicode="A" horiz-adv-x="1472" d="M586 1397h221l477 -1114q27 -63 45.5 -102.5t36.5 -61.5q20 -27 44 -35t58 -8v-76h-573v78q84 2 128 37t44 94v4v4q-2 16 -6 33.5t-14 42.5l-105 252h-543l-71 -193l-7.5 -22.5t-7.5 -20.5q-4 -16 -6 -33.5t-2 -31.5q0 -76 44 -118t130 -50v-76h-471v78q4 0 9.5 1t9.5 1 q16 4 28.5 9t22.5 13q4 2 8 5.5t8 7.5q4 2 7 5l8 7q8 6 15 14.5t13 18.5q16 23 35 65l53 127l393 979zM895 655l-231 555l-222 -555h453z" />
<glyph unicode="B" horiz-adv-x="1409" d="M70 1397h741q70 -2 123 -8.5t100 -22.5q102 -33 164 -116t62 -191q0 -133 -100.5 -213t-307.5 -109v-2q127 -16 201.5 -39.5t132.5 -66.5q61 -47 94 -113.5t33 -144.5q0 -100 -56.5 -185.5t-154.5 -132.5q-16 -8 -32.5 -15t-33.5 -11q-49 -18 -104 -23.5t-148 -5.5 l-714 2v78h26h8q96 0 138 51q43 53 43 182v772q0 127 -43 180.5t-146 53.5l-26 2v78zM502 686v-356q0 -145 46 -196.5t179 -51.5l72 2h6q118 0 187 72q71 74 71 198q0 96 -49 176t-129 117q-41 20 -94.5 28.5t-135.5 8.5zM502 780h145q22 -1 42 0q50 0 87 3q51 5 90 18 q66 23 105 81t39 140v8v8q-2 39 -13.5 77t-29.5 65q-25 39 -62 66.5t-82 43.5q-4 2 -9 3t-11 3q-39 12 -84 16.5t-123 4.5l-94 2v-539z" />
<glyph unicode="C" horiz-adv-x="1599" d="M1466 1012h-65q-70 154 -201 245t-285 91q-242 0 -389 -174.5t-147 -456.5q0 -293 156.5 -475.5t408.5 -182.5q100 0 186.5 30t145.5 85q47 41 75.5 96.5t49.5 135.5l76 2l-11 -322q-61 -27 -138 -48.5t-154 -35.5q-72 -12 -139.5 -19.5t-125.5 -7.5q-346 0 -563 197 t-217 510q0 328 227.5 539t581.5 211q115 0 233.5 -25t245.5 -74z" />
<glyph unicode="D" horiz-adv-x="1728" d="M59 1397h719q139 -2 223 -11.5t156 -31.5q2 0 3 -1t3 -1q66 -20 127.5 -56t116.5 -86q111 -98 168 -225t57 -276q0 -242 -148.5 -430.5t-389.5 -249.5q-4 0 -7.5 -1t-5.5 -3q-63 -14 -135 -20.5t-190 -6.5l-697 2v78h39h8q96 0 138 51q43 53 43 182v772q0 127 -43 180.5 t-146 53.5l-39 2v78zM504 1315v-942q0 -72 2 -103.5t12 -56.5q0 -2 1 -5t3 -5q23 -55 75 -87t122 -32l78 2q18 -1 34 0q50 0 89 4q51 6 90 16q168 47 267 197t99 352q0 152 -49 276t-145 214q-41 39 -88 68.5t-101 50.5q-70 29 -150.5 39t-213.5 10z" />
<glyph unicode="E" horiz-adv-x="1386" d="M53 0v78h27h8q98 0 139 51q43 53 43 182v772q0 129 -43 182.5t-147 53.5l-27 2v76h1184v-312h-74q-31 76 -68.5 124t-88.5 71q-41 18 -92.5 24.5t-151.5 6.5l-275 2v-539h273h13q135 0 194 41q61 43 69 152l82 2v-494h-82q-18 115 -77.5 161t-192.5 46l-279 2v-338 q0 -106 21.5 -157.5t79.5 -77.5q35 -16 77 -22.5t115 -6.5q100 0 165 11t118 38t92 63.5t74 96.5q6 12 13 24.5t13 24.5l93 2l-91 -342h-1204z" />
<glyph unicode="F" horiz-adv-x="1343" d="M57 1397h1241v-316h-59q-16 31 -32.5 57.5t-32.5 49.5q-27 37 -55.5 61.5t-61.5 38.5q-8 2 -14.5 5t-14.5 5q-29 8 -72 10.5t-147 2.5l-307 2v-525h303h15q127 0 173 33q49 35 64 146l82 2v-504h-82q-14 80 -38 123t-67 69q-33 18 -69.5 27.5t-83.5 9.5l-297 2v-383 q0 -131 43 -184t149 -53l54 2v-78h-678v78h26h8q98 0 140 51q43 53 43 182v772q0 127 -43 180.5t-148 53.5l-39 2v78z" />
<glyph unicode="G" horiz-adv-x="1705" d="M1456 1341l29 -329h-84q-80 170 -198 253t-281 83q-248 0 -410 -181.5t-162 -457.5t170 -464t420 -188q31 0 61.5 3t61.5 10q53 10 107.5 30.5t111.5 51.5v254q0 127 -43 180t-147 53l-56 2v78h656v-78h-9q-94 -2 -136 -56.5t-42 -181.5v-329l-28 -8q-168 -49 -297 -70 t-248 -21q-375 0 -607.5 195t-232.5 508q0 319 250 536.5t616 217.5q33 0 64 -1t61 -6q84 -8 172 -28.5t201 -57.5v2z" />
<glyph unicode="H" horiz-adv-x="1748" d="M494 662v-349q0 -131 43 -184t145 -53l31 2v-78h-652v78h27h8q96 0 137 51q43 53 43 182v772q0 127 -43 180.5t-145 53.5l-27 2v78h652v-78h-31q-102 -2 -145 -55.5t-43 -182.5v-313h755v315q0 127 -43 180.5t-145 53.5l-8 2v78h630v-78h-28q-104 -2 -147.5 -55.5 t-43.5 -182.5v-768q0 -131 43 -184t148 -53l28 2v-78h-630v78h8h7q96 0 138 51q43 53 43 182v351h-755z" />
<glyph unicode="I" horiz-adv-x="768" d="M55 1397h658v-78h-29q-104 -2 -147 -55.5t-43 -182.5v-768q0 -131 43 -184t147 -53l29 2v-78h-658v78h33h8q98 0 140 51q43 53 43 182v772q0 127 -43 180.5t-148 53.5l-33 2v78z" />
<glyph unicode="J" horiz-adv-x="724" d="M61 1397h666v-78h-35q-104 -2 -147 -55.5t-43 -182.5v-729q0 -139 -2 -202.5t-8 -112.5q-2 -16 -5.5 -31.5l-7.5 -34.5q-8 -53 -27.5 -100t-45.5 -88q-43 -63 -113 -98t-154 -35q-94 0 -151.5 39t-57.5 98q0 39 27 67.5t63 28.5q35 0 65 -21.5t52 -62.5l8 -12l9 -12 q14 -16 28.5 -24.5t34.5 -8.5q43 0 56.5 40t13.5 169v1132q0 127 -43 180.5t-148 53.5l-35 2v78z" />
<glyph unicode="K" horiz-adv-x="1642" d="M63 1397h648v-78h-25q-104 -2 -147 -55.5t-43 -182.5v-768q0 -131 43 -184t147 -53l37 2v-78h-660v78h27h8q98 0 140 51q43 53 43 182v772q0 127 -43 180.5t-148 53.5l-27 2v78zM942 1397h578v-78q-31 -4 -52.5 -8t-40.5 -8q-10 -4 -21 -9l-24 -8q-2 0 -4 -1t-4 -3 q-14 -4 -26.5 -10t-24.5 -15q-41 -23 -90 -63.5t-141 -126.5l-28 -25l-26 -24q-12 -12 -25.5 -22.5t-25.5 -22.5l-93 -77l-108 -87l-38 -27l39 -34l34 -27q2 -2 4 -3t2 -3l64 -53l86 -78l229 -207q92 -84 166 -142.5t121 -87.5l50 -24q26 -12 54 -23q16 -6 26.5 -9t18.5 -5 q4 -2 9.5 -3t9.5 -1t6 -1t6 -1v-80h-358q-29 20 -50.5 37.5t-39.5 34.5q-4 2 -6 4t-5 6q-16 12 -33.5 27.5t-37.5 35.5l-205 197l-213 190l-186 162l-27 25l31 20l148 106l104 79q6 4 12 9t10 9q25 18 48 39l50 45l68 67q31 32 55 64l13 22q6 11 10 21l4 19.5t2 17.5 q0 39 -29.5 59.5t-85.5 20.5l-10 2v78z" />
<glyph unicode="L" horiz-adv-x="1386" d="M45 1397h678v-78h-41q-102 -2 -145 -55.5t-43 -182.5v-694q0 -102 11 -151.5t44 -83.5q35 -37 85 -53.5t128 -16.5l147 2h21q98 0 160 17q68 19 127 71q6 8 14 15.5l16 15.5q10 10 18.5 20l16.5 19q6 6 10 13t8 13q10 14 21 32l25 40l86 2l-86 -342h-1301v76h43h8 q98 0 138 51q42 53 42 182v774q0 127 -43 180.5t-145 53.5l-43 2v78z" />
<glyph unicode="M" horiz-adv-x="2068" d="M205 1397h407q4 -47 11.5 -87t17.5 -79q8 -33 19.5 -68t25.5 -73q0 -2 1 -5.5t3 -5.5q4 -10 7 -19t8 -20q20 -53 49 -112l77 -160l71 -141l52 -111q2 -4 3 -8t4 -8l17 -37t17 -39l19 -43l12 -33q2 -2 2 -3t2 -3q2 -10 6 -21.5t11 -25.5l10 24l8 21q0 2 1 4t3 4 q10 23 23 47l36 72q10 20 21 39l20 37q2 6 6 12l7 14q27 49 53 105l59 123l45 98l37 80q53 121 75 199.5t22 144.5v17v16q-2 8 -3.5 18t-5.5 25l416 2v-78h-8q-68 -2 -111 -41t-43 -100q0 -20 3 -44t5 -53l107 -768q16 -127 65.5 -182t143.5 -55l8 2v-78h-618v78h6h7 q77 0 122 44q47 46 47 122q0 16 -1 32.5t-5 34.5l-99 772h-4q-6 -23 -11 -38t-9 -29l-4 -12l-4 -13l-14 -30l-15 -37q-14 -35 -39 -89l-59 -126l-69 -145l-52 -101l-66 -128q-25 -46 -30 -59l-23 -54l-27 -66q-12 -29 -19 -50l-13 -38q0 -4 -1 -7.5t-3 -7.5l-9 -25l-8 -28 h-96q-2 6 -3 14.5t-3 16.5q-6 31 -18.5 66.5t-41.5 101.5l-43 101l-30 69q-6 14 -32 66l-73 140q-6 10 -11 20.5t-9 20.5q-74 143 -132.5 277.5t-84.5 220.5l-4 2l-111 -725q-2 -10 -3 -20.5t-3 -18.5q-2 -20 -3 -38.5t-1 -34.5q0 -100 46 -151.5t136 -51.5l8 2v-78h-479v78 h6h7q79 0 119 48q42 50 62 171l15 94l102 633q6 43 9 72.5t3 52.5q0 82 -36.5 121t-120.5 47v80z" />
<glyph unicode="N" horiz-adv-x="1728" d="M8 1397h334l1047 -1061l-17 670q-2 82 -14 136t-37 91q-27 41 -75 62.5t-105 21.5l-11 2v78h549v-78h-6q-100 -2 -156.5 -81t-56.5 -222v-10l13 -592q0 -16 1 -30.5t1 -27.5q2 -49 4 -80.5t6 -60.5q0 -12 3 -25.5t5 -27.5l18 -92l6.5 -36.5t2.5 -23.5q2 -6 2 -12v-14 h-133q-43 57 -85 107t-81 89l-848 873l16 -662q2 -104 9.5 -148t27.5 -75q2 -2 3 -4t3 -4q27 -39 77 -61.5t107 -22.5l19 2v-78h-584v78h31h8q105 0 155 52q52 54 52 167v94l-10 754l-94 90q-8 6 -15.5 13l-15.5 14q-31 23 -66 35t-88 16z" />
<glyph unicode="O" horiz-adv-x="1665" d="M106 672q0 326 205 536.5t523 210.5q311 0 515.5 -207.5t204.5 -521.5q0 -303 -216 -509t-537 -206q-295 0 -495 199t-200 496v2zM352 733q16 -305 155.5 -490.5t352.5 -185.5q203 0 326 154t123 401q0 145 -39 283.5t-109 243.5q-61 92 -159.5 144t-208.5 52 q-88 0 -167 -34.5t-141 -104.5q-70 -76 -102.5 -176t-32.5 -240v-24q0 -12 2 -25v2z" />
<glyph unicode="P" horiz-adv-x="1300" d="M494 1313v-1000q0 -131 43 -184t145 -53l45 2v-78h-659v78h20h8q96 0 137 51q43 53 43 182v774q0 129 -41.5 182.5t-146.5 53.5l-20 2v74h669q98 -2 155.5 -8.5t106.5 -26.5q14 -4 29 -11l31 -16q90 -47 139 -127t49 -182q0 -180 -139 -288.5t-371 -108.5 q-70 0 -106.5 15t-36.5 44q0 23 15.5 33t41.5 10l45 2q4 -4 10 -4h9q123 0 202.5 80t79.5 199v7v5q-4 68 -32.5 128t-77.5 99q-41 33 -100.5 48.5t-141.5 15.5z" />
<glyph unicode="Q" horiz-adv-x="1665" d="M903 -160l-268 158q-10 2 -21.5 4t-19.5 6q-57 16 -98 35.5t-80 46.5q-25 18 -50 42l-57 54q-100 102 -147 219t-47 271q0 324 205.5 533.5t521.5 209.5q309 0 515 -207.5t206 -519.5q0 -260 -154 -446.5t-420 -247.5v-4l105 -45q63 -27 138 -53.5t150 -49.5 q70 -18 136.5 -33.5t126.5 -25.5v-178l-72 8q-37 4 -76 10l-117 21q-57 10 -104 22l-41 12l-33 9q-59 20 -130 55t-169 94zM358 803q0 -330 142.5 -537t367.5 -207q205 0 327 153t122 406q0 309 -146.5 514t-367.5 205q-195 0 -320 -151.5t-125 -384.5v2z" />
<glyph unicode="R" horiz-adv-x="1472" d="M498 659v-346q0 -131 43 -184t147 -53l27 2v-78h-639v78h16h8q98 0 140 51q43 53 43 182v772q0 127 -43 180.5t-148 53.5l-16 2v78h602q145 -2 229 -13.5t154 -40.5q96 -39 152.5 -121.5t56.5 -181.5q0 -94 -52.5 -175t-142.5 -124q-16 -8 -30.5 -14t-28.5 -10 q-10 -6 -22.5 -9t-24.5 -8q-16 -4 -37 -8t-47 -10q6 -4 9 -7l7 -7l2 -2q4 -2 8 -7.5t11 -11.5q12 -16 37 -46l63 -71l182 -206q12 -14 39 -43l70 -72l46 -44.5l38 -35.5q14 -10 29 -19l34 -20q8 -4 13.5 -6l11.5 -4q8 -2 15 -3t20 -1v-76h-164q-70 0 -123 16.5t-94 55.5 q-29 27 -67 68.5t-87 103.5l-178 227q-59 72 -97 114t-59 56q-10 8 -34.5 12t-59.5 4zM498 748h110q39 -1 69 -1q46 0 74 2q46 3 83 13l21 8l24 8q68 29 103.5 89.5t35.5 142.5q0 86 -40 153.5t-112 102.5q-16 8 -30.5 14t-28.5 10q-37 12 -79 15.5t-118 3.5l-112 2v-563z " />
<glyph unicode="S" horiz-adv-x="1216" d="M115 74l-11 352h99q25 -170 123 -261t252 -91q127 0 215 66.5t88 160.5q0 57 -37 111.5t-111 101.5q-37 27 -83 54l-101 61q-121 72 -193.5 122t-115.5 95q-16 16 -29.5 33.5l-26.5 35.5q-20 33 -30.5 72t-10.5 80q0 158 131.5 255t343.5 97q31 0 59 -2t56 -6 q43 -6 88 -18.5t101 -32.5l34.5 -13.5t24.5 -11.5q4 -2 8 -3t8 -3l24 -12l26 -14v-299h-91q-12 152 -107 241.5t-247 89.5q-106 0 -181 -56t-75 -136q0 -57 38 -109.5t116 -101.5l92 -55l115 -66q102 -57 168.5 -104.5t111.5 -92.5q27 -27 46.5 -53t33.5 -55 q16 -33 24.5 -69t8.5 -77q0 -170 -144.5 -278.5t-369.5 -108.5q-43 0 -92.5 5.5t-98.5 13.5q-82 12 -157.5 33.5t-122.5 46.5v2z" />
<glyph unicode="T" horiz-adv-x="1556" d="M45 1397h1454l31 -332h-74q-33 76 -73 127t-89 80q-6 4 -12 7t-12 5q-33 16 -71 21.5t-99 5.5l-217 2v-1000q0 -131 43 -184t147 -53l27 2v-78h-656v78h33h8q98 0 140 51q43 53 43 182v1002h-224q-92 -2 -143 -17.5t-92 -62.5q-6 -6 -12.5 -13.5t-12.5 -15.5 q-12 -14 -20 -26.5t-17 -22.5q-2 -4 -4 -7t-6 -7l-18 -33q-10 -18 -27 -45l-69 2z" />
<glyph unicode="U" horiz-adv-x="1705" d="M43 1397h672v-78h-23q-121 -2 -165 -52t-44 -186v-549q0 -137 23.5 -208.5t87.5 -124.5q59 -51 139 -77t176 -26q121 0 210 36t155 112q29 35 48 70.5t30 72.5q6 25 11 61.5t7 75.5q2 20 3 41t1 39v10l-6 392v92q-2 109 -57.5 164t-165.5 55l-19 2v78h551v-78h-6 q-102 -2 -155.5 -58.5t-53.5 -164.5v-90v-400q0 -86 -4 -138t-12 -99q-2 -8 -4 -17.5t-4 -17.5q-12 -53 -38 -101.5t-61 -87.5q-82 -88 -195.5 -129t-277.5 -41q-225 0 -378.5 83t-198.5 229q-2 10 -5 20t-5 19q-8 35 -10.5 77.5t-2.5 128.5v551q0 127 -43 180.5t-145 53.5 l-35 2v78z" />
<glyph unicode="V" horiz-adv-x="1449" d="M2 1397h559v-78q-8 -2 -15 -2t-11 -2q-72 -4 -106 -27.5t-34 -64.5q0 -23 14.5 -65t47.5 -107l258 -541l27 -65l44 -107q4 -8 10 -23l11 -32l4 2l4 12l4 12q0 4 2 9.5t4 7.5q6 16 26 64l52 126l148 352q47 109 69.5 182.5t22.5 114.5q0 68 -44 106t-134 46v80h481v-78 l-12 -4q-63 -23 -102.5 -57.5t-61.5 -94.5l-41 -104l-43 -103l-49 -125l-238 -552l-22 -59l-21 -56q-14 -45 -26.5 -92t-22.5 -97h-111q-12 55 -32.5 113.5t-53.5 126.5l-426 924q-25 53 -44 87t-36 54q-20 23 -41.5 30t-52.5 7l-8 2v78z" />
<glyph unicode="W" horiz-adv-x="2048" d="M0 1397h485v-78q-51 -10 -79.5 -41t-28.5 -78v-5v-7q2 -23 10 -48.5t29 -66.5l186 -399l31 -73l45 -105l39 -88q16 -37 24 -60l37 -92l8 -23l201 396l-231 504q-18 39 -34.5 68.5t-33.5 51.5q-27 33 -52.5 47.5t-55.5 16.5v80h477v-78q-45 -12 -69.5 -41t-24.5 -68 q0 -18 6 -41.5t18 -48.5l125 -250l121 234q8 12 12 28l8 31q0 8 1 15.5t1 15.5q0 53 -23.5 82t-74.5 41v80h373v-78q-29 -10 -50.5 -20.5t-41.5 -32.5q-20 -23 -44 -60t-57 -98l-180 -338l178 -360q10 -27 18.5 -43.5t14.5 -32.5l3 -6q1 -2 3 -4q4 -14 10.5 -27.5 t12.5 -32.5l313 727q25 55 36 97t11 75q0 70 -32.5 108t-98.5 46v80h418v-78q-51 -8 -93 -50t-77 -118l-39 -88l-387 -891q-4 -10 -7 -19.5t-7 -17.5q-18 -45 -31.5 -87t-20.5 -73h-94q-2 10 -4 17.5l-4 15.5q-4 10 -6 18.5t-6 16.5q-4 12 -10 24l-11 25l-215 440l-153 -299 q-45 -88 -72 -153.5t-37 -104.5h-108q-4 27 -26 87.5t-52 127.5q0 2 -1 5.5t-3 5.5l-406 907l-43 98q-20 47 -52 75t-79 36v80z" />
<glyph unicode="X" horiz-adv-x="1599" d="M893 770l424 -506q57 -70 99 -109.5t83 -58.5q23 -12 46.5 -17t49.5 -5v-74h-669v76q82 2 119.5 23.5t37.5 62.5q0 12 -3 24.5t-7 24.5q-6 12 -13 24.5t-18 24.5l-288 350l-228 -260q-43 -51 -62.5 -86t-21.5 -67v-4v-5q0 -53 41 -83.5t117 -30.5v-74h-565v76q10 0 18 1 t15 3q20 2 36.5 6t30.5 10l17 8q8 4 18 11q6 4 13 8l14 8q31 20 65.5 55t93.5 101l342 389l-393 471q-41 47 -71.5 77.5t-61.5 51.5q-33 20 -67.5 28.5t-81.5 10.5v82h661v-80q-84 -10 -116.5 -28.5t-32.5 -57.5v-7q0 -3 2 -5q2 -16 11 -34t27 -40l261 -307l211 252 q29 33 43 62.5t14 53.5q0 49 -35 76t-106 33v82h528v-80q-20 -6 -33.5 -8t-23.5 -4l-13 -5l-12 -4q-4 -2 -7 -3t-7 -3q-47 -20 -109.5 -75.5t-134.5 -139.5z" />
<glyph unicode="Y" horiz-adv-x="1472" d="M844 586v-273q0 -131 43 -184t145 -53l17 2v-78h-631v78h20h8q96 0 138 51q43 53 43 182v275l-402 588l-43 57q-18 25 -35 39q-27 23 -56.5 32t-76.5 15v80h613v-78q-92 -8 -125 -25.5t-33 -64.5q0 -20 8 -41t23 -43l311 -451l227 334q33 45 47.5 78t18.5 61v9v8 q0 63 -35 94t-121 39v80h506v-78q-25 -4 -45 -11.5t-39 -19.5q-33 -18 -67.5 -58t-83.5 -112z" />
<glyph unicode="Z" horiz-adv-x="1386" d="M1319 362l-92 -362h-1178v59l934 1254h-416q-102 -2 -157.5 -21.5t-102.5 -74.5q-4 -4 -7 -8.5t-7 -8.5q-8 -12 -15.5 -21.5t-13.5 -19.5q-2 -6 -6 -12l-8 -12q-4 -12 -10 -26l-15 -32l-73 2v318h1118v-56l-942 -1257h407q23 -1 44 -1q62 0 103 5q54 6 101 27q6 2 11 4 l10 4q29 14 55 32.5t53 43.5q18 18 36.5 39.5t39.5 48.5l53 75h78z" />
<glyph unicode="[" horiz-adv-x="768" d="M735 -295v-80h-426q-12 33 -17 71t-5 97v1460q0 57 5 95t17 71l426 2v-80h-88q-115 -2 -151.5 -32.5t-36.5 -126.5v-1317q0 -98 36.5 -129t151.5 -31h88z" />
<glyph unicode="\" d="M111 1423l489 -1452h-139l-492 1452h142z" />
<glyph unicode="]" horiz-adv-x="768" d="M33 -295h88q117 0 152.5 31t35.5 129v1319q0 94 -35.5 124.5t-152.5 30.5l-88 2v80h426q12 -35 17 -72.5t5 -97.5v-1458q0 -59 -5 -97t-17 -71h-426v80z" />
<glyph unicode="^" horiz-adv-x="960" d="M498 1384l426 -716h-93l-350 585l-350 -585h-94l432 716h29z" />
<glyph unicode="_" horiz-adv-x="1024" d="M1040 -539h-1056v84h1056v-84z" />
<glyph unicode="`" horiz-adv-x="681" d="M119 1393h223l104 -346h-34z" />
<glyph unicode="a" horiz-adv-x="980" d="M625 555v94q0 109 -44 158t-145 49q-41 0 -79 -14.5t-62 -42.5q-8 -8 -12 -18.5t-4 -20.5v-4v-4q2 -8 6 -17.5t12 -25.5q16 -27 22.5 -41.5t6.5 -24.5q0 -8 -4.5 -14t-12.5 -11l-104 -47q-6 -4 -10.5 -5t-6.5 -1h-3q-11 4 -22 21.5t-30 62.5q-2 6 -5 13.5t-3 13.5 q-2 6 -3 13t-1 13q0 100 110.5 170t266.5 70q113 0 186.5 -31.5t95.5 -91.5q2 -4 3 -8t1 -8q8 -25 10.5 -55.5t2.5 -98.5v-377q0 -98 9 -123.5t42 -25.5q14 0 29.5 6t33.5 16l19 -69q-33 -39 -62.5 -60.5t-58.5 -29.5q-12 -4 -23.5 -6.5t-23.5 -2.5q-57 0 -93 38t-44 108 q-63 -57 -115.5 -90t-101.5 -45q-20 -4 -41 -7.5t-43 -3.5q-100 0 -166 62.5t-66 157.5q0 51 22.5 95t65.5 77q2 0 3 1l3 3q20 16 45 30.5t54 28.5l54.5 21.5t66.5 23.5zM625 477l-109 -41l-114 -50t-74 -40q-31 -23 -43.5 -47.5t-12.5 -54.5q0 -57 41 -94t105 -37 q45 0 86 16t80 51q10 8 20 19l21 20v258z" />
<glyph unicode="b" horiz-adv-x="1148" d="M332 1423v-643q37 35 71.5 62.5t69.5 46.5q47 29 96 41t103 12q170 0 280.5 -132t110.5 -335q0 -219 -144.5 -358.5t-371.5 -139.5q-86 0 -177 24t-208 77v1116l-146 86v31l293 112h23zM332 686v-260q0 -111 5 -157t28 -81q4 -6 10 -14l12 -16q39 -49 92 -74t125 -25 q127 0 207 95.5t80 246.5q0 162 -91 278t-220 116q-70 0 -135.5 -29t-112.5 -82v2z" />
<glyph unicode="c" horiz-adv-x="960" d="M854 270l49 -30q-33 -123 -134 -193t-243 -70q-193 0 -313.5 132.5t-120.5 341.5q0 219 134 355t347 136q152 0 238 -48t86 -136q0 -45 -20.5 -72t-57.5 -27q-23 0 -39 9.5t-32 33.5q-6 8 -12.5 19.5t-12.5 26.5q-29 61 -70 85.5t-112 24.5q-129 0 -207 -92t-78 -244 q0 -162 98.5 -273.5t241.5 -111.5q88 0 152.5 33t105.5 98v2z" />
<glyph unicode="d" horiz-adv-x="1173" d="M981 1423v-1161q0 -96 15.5 -127t64.5 -31q10 0 22 2l25 5q4 0 9 1t13 3v-80l-321 -58v154q-53 -53 -113.5 -88t-122.5 -51q-27 -6 -53 -10.5t-53 -4.5q-162 0 -272.5 126t-110.5 313q0 215 146.5 370.5t351.5 155.5q47 0 102 -9t125 -30v311l-150 89v32l281 88h41z M809 231v273q0 41 -3 75.5t-11 67.5q-23 92 -94.5 150.5t-161.5 58.5q-117 0 -200 -98.5t-83 -237.5q0 -174 90 -290.5t221 -116.5q72 0 135.5 29.5t106.5 86.5v2z" />
<glyph unicode="e" horiz-adv-x="960" d="M895 567h-651q0 -96 16 -158.5t53 -117.5q2 -4 5.5 -8t5.5 -9q51 -70 119.5 -104.5t152.5 -34.5q72 0 135.5 25.5t122.5 77.5l41 -37q-66 -109 -164 -166.5t-217 -57.5q-186 0 -306 133.5t-120 338.5q0 211 124 352t304 141q158 0 265.5 -106.5t113.5 -270.5v2zM254 641 h426q-12 106 -64.5 165.5t-136.5 59.5q-90 0 -149.5 -61.5t-75.5 -165.5v2z" />
<glyph unicode="f" horiz-adv-x="636" d="M387 831v-561q0 -119 38 -158.5t148 -39.5l27 2v-74h-551v74h29h6q69 0 100 44q33 46 33 150v563h-168v91h47q9 0 17 -1q57 0 74 13q19 14 22 67q6 100 30.5 173t67.5 124q53 63 133 98.5t168 35.5q100 0 165 -44.5t65 -109.5q0 -39 -25 -62.5t-65 -23.5q-16 0 -28.5 3 t-25.5 13q-10 6 -19 16.5l-22 26.5q-29 37 -48 56.5t-38 27.5q-8 4 -17 6t-20 2q-68 0 -105.5 -56t-37.5 -159v-206h246v-91h-246z" />
<glyph unicode="g" horiz-adv-x="1024" d="M1020 889l-8 -139q-20 -4 -32.5 -5.5t-23.5 -1.5h-7h-7h-19q-9 0 -20 2q-18 0 -37.5 4.5l-46.5 10.5q10 -25 16.5 -45.5t10.5 -40.5q2 -14 3 -28.5t1 -29.5q0 -139 -108.5 -235t-270.5 -96h-9h-9q-20 2 -44 6t-65 12q-4 -2 -8 -5t-6 -5q-20 -18 -32.5 -30.5t-16.5 -24.5 q0 -2 -1 -5.5t-1 -7.5q0 -39 48 -52t187 -13l16 2h37q82 -2 123 -4t74 -8q12 -2 24.5 -5.5l26.5 -7.5q82 -23 127 -73t45 -117q0 -147 -152.5 -243.5t-385.5 -96.5q-168 0 -283 54t-115 134q0 45 40 94.5t134 118.5q-59 27 -87.5 55.5t-28.5 61.5q0 35 42 87t128 122 q-84 49 -126 117.5t-42 156.5q0 141 103 237.5t257 96.5q29 0 65.5 -4t81.5 -14l136 -28q47 -9 88 -13q18 -2 40 -2h48h22q10 0 21 2q10 0 21.5 1t25.5 3v2zM295 -6l-19 -21q-33 -35 -49 -56t-20 -42q-2 -6 -3 -12t-1 -13q0 -59 79.5 -99t204.5 -40q23 0 45.5 1t45.5 5 q53 6 104 18.5t88 28.5t59.5 45t22.5 62q0 57 -58.5 83t-193.5 26l-102 -3q-47 0 -98.5 4.5t-104.5 12.5zM291 645v-20q0 -113 57.5 -186.5t143.5 -73.5t133 59t47 166q0 115 -58.5 191.5t-144.5 76.5q-74 0 -123 -59.5t-55 -155.5v2z" />
<glyph unicode="h" horiz-adv-x="1148" d="M348 1423v-632l51 42q18 15 35 27q4 2 7 4t8 4l11 7.5l11 7.5q51 29 105.5 44t111.5 15q78 0 141.5 -31.5t96.5 -85.5q2 -4 5 -9t5 -11q20 -41 26.5 -89t6.5 -136v-310q0 -106 32.5 -152t106.5 -46l10 2v-74h-475v74h16h7q69 0 100 44q33 46 33 150v299 q0 119 -50.5 178.5t-150.5 59.5q-18 0 -37.5 -2t-38.5 -6q-45 -12 -90 -34t-84 -52v-441q0 -106 33 -152t106 -46l25 2v-74h-489v74h16h6q69 0 99 44q32 46 32 150v928l-153 88v39l280 100h45z" />
<glyph unicode="i" horiz-adv-x="555" d="M381 944v-674q0 -102 28.5 -150t90.5 -48l8 2v-74h-447v74h9h6q71 0 101 44q32 46 32 150v451l-156 82v37l279 106h49zM176 1313q0 45 33 76.5t78 31.5q47 0 78.5 -31.5t31.5 -78.5q0 -45 -31.5 -79t-78.5 -34q-45 0 -78 34t-33 79v2z" />
<glyph unicode="j" horiz-adv-x="532" d="M397 944v-815q0 -78 -3 -113.5t-11 -62.5q-2 -2 -2 -3v-1q-14 -39 -44 -82t-79 -98l-143 -160l-68 45l68 106q12 20 25 45l26 48q14 31 25.5 59.5t19.5 52.5q6 23 10 45.5t4 44.5v14q0 7 2 17v24v29v574l-166 90v35l293 106h43zM190 1313q0 43 33 75.5t78 32.5t77 -31.5 t32 -78.5q0 -45 -32 -79t-77 -34t-78 34t-33 79v2z" />
<glyph unicode="k" horiz-adv-x="1044" d="M367 1423v-1153q0 -106 32.5 -152t106.5 -46l12 2v-74h-452v74h8h5q58 0 87 46q31 48 31 148v938l-131 72v49l249 96h52zM543 537l506 -451v-86h-156q-18 10 -32.5 19.5t-26.5 19.5q-4 2 -9.5 6t-9.5 8q-8 6 -15 14.5t-18 16.5l-407 399l194 181q37 33 53.5 57t16.5 47 q0 39 -30.5 58.5t-90.5 19.5l-18 2v74h508v-74q-53 -4 -115 -36t-133 -93z" />
<glyph unicode="l" horiz-adv-x="555" d="M367 1423v-1153q0 -102 29.5 -150t92.5 -48l7 2v-74h-441v74h6h6q67 0 98 45q32 47 32 149v936l-142 78v45l271 96h41z" />
<glyph unicode="m" horiz-adv-x="1771" d="M367 705v-435q0 -106 32.5 -152t104.5 -46l8 2v-74h-467v74h12h7q69 0 99 44q32 46 32 150v447l-146 96v31l268 102h48v-156l45 38l34 28q4 2 6.5 4t6.5 4q4 4 9 7t11 8q53 33 110.5 49t121.5 16q102 0 162.5 -36t95.5 -120q47 45 89 76t83 49q39 16 77.5 24.5t83.5 8.5 q84 0 148.5 -28.5t97.5 -81.5l12 -20q5 -9 9 -17q12 -27 15 -61t3 -107v-359q0 -104 32 -151t101 -47l8 2v-74h-469v74h19h6q67 0 98 44q33 46 33 150v328q0 109 -48 160t-153 51q-55 0 -114.5 -22.5t-124.5 -69.5v-445q0 -106 32.5 -152t106.5 -46l6 2v-74h-481v74h29h6 q67 0 98 44q33 46 33 150v330q0 113 -43 160t-144 47q-51 0 -94 -11.5t-86 -37.5q-16 -10 -33.5 -23.5t-35.5 -30.5v3z" />
<glyph unicode="n" horiz-adv-x="1173" d="M360 686v-416q0 -106 33 -152t105 -46l28 2v-74h-489v74h14h6q67 0 99 44q33 46 32 150v455l-139 78v47l275 96h36v-174l47 47q19 20 37 35q10 8 22.5 16.5t27.5 16.5q2 0 5 2t7 4q33 18 70.5 29.5t76.5 17.5q14 2 28.5 3t29.5 1q66 0 124 -24.5t93 -65.5l3 -3l3 -3 q35 -45 46 -102.5t11 -180.5v-293q0 -106 33 -152t104 -46l11 2v-74h-484v74h27h6q67 0 98 44q33 46 33 150v277q0 133 -46 196.5t-144 63.5h-12h-11q-57 -6 -116.5 -34t-129.5 -87v2z" />
<glyph unicode="o" horiz-adv-x="1110" d="M88 469q0 199 133 336t326 137q209 0 343 -133t134 -342t-133 -349.5t-330 -140.5q-193 0 -333 145.5t-140 344.5v2zM535 868h-11q-117 -2 -179 -84t-62 -237q0 -39 4 -79t12 -81q35 -162 109.5 -249t177.5 -87q115 0 184.5 80t69.5 213q0 16 -1 34.5t-1 35.5 q-8 82 -30 160.5t-56 146.5q-37 72 -90.5 107.5t-126.5 37.5v2z" />
<glyph unicode="p" horiz-adv-x="1148" d="M346 37v-160q0 -102 33 -148t106 -46h37v-74h-497v74h12q74 0 106.5 46t32.5 148v844l-145 84v35l264 104h51v-153l30 25l30 26q63 51 129.5 75.5t144.5 24.5q168 0 273.5 -122t105.5 -314q0 -219 -138.5 -374t-334.5 -155q-20 0 -40 3l-40 4q-41 8 -81 20t-79 31v2z M346 707v-306q0 -82 4 -121.5t21 -72.5q4 -8 10 -17.5l12 -19.5q31 -51 87.5 -80t121.5 -29q133 0 208 92.5t75 254.5q0 174 -82 282.5t-215 108.5q-29 0 -59.5 -6.5t-61.5 -18.5t-61.5 -29.5t-59.5 -39.5v2z" />
<glyph unicode="q" horiz-adv-x="1148" d="M809 -123v258q-70 -61 -124 -96t-103 -47q-27 -8 -51.5 -11.5t-53.5 -3.5q-176 0 -286.5 122t-110.5 321q0 231 138 376.5t355 145.5q90 0 172 -21.5t158 -64.5v74q0 4 3 8t12 4l49 2q8 -2 11 -6t3 -10v-1051q0 -102 31.5 -149t101.5 -47h8v-72h-483v72h33q74 0 105.5 47 t31.5 149zM809 227v303q0 156 -72.5 246t-199.5 90q-131 0 -212 -94t-81 -246q0 -170 92 -285.5t229 -115.5q16 0 31.5 1t32.5 5q39 8 81 30.5t99 63.5v2z" />
<glyph unicode="r" horiz-adv-x="768" d="M371 631v-361q0 -117 35.5 -157.5t138.5 -40.5l33 2v-74h-533v74h16h6q67 0 99 44q33 46 33 150v443l-154 82v34l283 117h43v-203h4l20 39q25 33 46.5 58.5t41.5 44.5q31 27 63 38t70 11q37 0 70 -14.5t59 -43.5q12 -12 19.5 -22t9.5 -21q2 -4 2 -7v-7q0 -12 -6 -31.5 t-16 -40.5q-4 -10 -9.5 -18t-9.5 -16q-8 -12 -19 -19.5t-26 -7.5q-6 0 -11 1t-11 3q-12 4 -26.5 16.5t-33.5 32.5q-8 10 -16 18.5t-17 12.5q-8 6 -18 8t-22 2q-8 0 -16.5 -1t-16.5 -5q-27 -10 -56.5 -43t-74.5 -100v2z" />
<glyph unicode="s" horiz-adv-x="811" d="M674 856v-221h-64q-23 119 -75 175t-136 56q-72 0 -113.5 -35.5t-41.5 -99.5q0 -25 6 -44t24 -38q25 -25 79.5 -53.5t148.5 -71.5l82.5 -40t56.5 -33q29 -20 45 -42t29 -51q12 -27 18 -55.5t6 -56.5q0 -125 -84 -197t-229 -72q-23 0 -45 3l-45 4q-57 8 -112.5 22 t-96.5 35v260h68q14 -121 70.5 -185.5t148.5 -64.5q80 0 132 41t52 105q0 35 -14.5 61.5t-48.5 52.5q-20 14 -49 30.5t-68 33.5q-80 35 -128 60.5t-81 49.5q-16 10 -29 22l-24 23q-27 31 -43.5 72t-16.5 86q0 113 84 183.5t215 70.5q84 0 151.5 -21.5t127.5 -66.5v2z" />
<glyph unicode="t" horiz-adv-x="681" d="M365 819v-571q0 -96 25.5 -122t115.5 -26h42q17 0 34 2l31.5 4.5t41.5 4.5v-99l-24 -4l-123 -20q-27 -4 -56.5 -7.5t-60.5 -3.5q-104 0 -151 42t-47 137l2 61v602h-156v55q20 6 42.5 17.5t43.5 26.5q47 31 92 73.5t78 91.5l70 2v-163h278v-103h-278z" />
<glyph unicode="u" horiz-adv-x="1173" d="M983 922v-670q0 -96 13.5 -123t60.5 -27q10 0 20 1t23 3l24 9v-80l-311 -58v158q-51 -47 -98 -78.5t-94 -52.5q-37 -12 -75 -19.5t-77 -7.5q-90 0 -154.5 33t-93.5 96q-12 29 -19 58t-9 57v94v314q0 119 -29 156.5t-119 37.5l-16 2v74l336 23v-521q0 -160 39.5 -220 t144.5 -60q27 0 50.5 3t47.5 11q39 10 79 32.5t87 59.5v402q0 119 -28.5 156.5t-120.5 37.5l-29 2v74z" />
<glyph unicode="v" horiz-adv-x="980" d="M506 -23h-66l-313 766q-6 10 -10 21.5t-11 19.5q-16 33 -37.5 44.5t-64.5 17.5v76h430v-74l-24 -2q-57 -8 -81 -24.5t-24 -53.5q0 -8 2 -18.5t4 -22.5q2 -4 4 -9t4 -11l209 -492l197 449q10 18 14 37.5t4 35.5q0 53 -29.5 79t-97.5 30v76h361v-74q-37 -8 -59.5 -20.5 t-40.5 -39.5q-10 -16 -21.5 -37.5t-26.5 -52.5z" />
<glyph unicode="w" horiz-adv-x="1492" d="M760 561l-258 -584h-70l-297 738q-12 29 -22.5 50t-20.5 36q-12 20 -27.5 29.5t-37.5 15.5v76h374v-74q-49 -4 -74.5 -23.5t-25.5 -54.5q0 -8 2 -19l4 -24q2 -10 5 -19.5t5 -17.5l201 -477l205 453l-31 75q-23 57 -51.5 81t-79.5 24l-16 2v74h446v-74 q-68 -10 -94.5 -27.5t-26.5 -56.5q0 -12 2 -25.5t7 -27.5q2 -10 5 -18.5t7 -16.5l178 -449l188 449q4 6 7 16l4 21q2 10 3 20t1 19q0 47 -31 69.5t-90 24.5v76h336v-74q-47 -10 -71.5 -28.5t-41.5 -59.5l-24 -62l-299 -721h-66z" />
<glyph unicode="x" horiz-adv-x="1024" d="M594 504l289 -332q33 -39 52 -58.5t36 -29.5q10 -4 19 -7t20 -5v-72h-457v74q59 8 85 23.5t26 41.5q0 14 -10.5 32.5t-28.5 39.5l-150 172l-113 -121q-31 -35 -46 -63.5t-15 -51.5q0 -33 30.5 -54t76.5 -21l8 2v-74h-393v74q18 2 34.5 8t30.5 14q27 14 52.5 38t58.5 59 l227 247l-289 342l-28 29q-12 12 -25 18q-12 8 -26.5 12.5t-34.5 4.5v76h423v-74q-6 -4 -9 -4h-7q-39 -8 -54.5 -18.5t-15.5 -26.5q0 -6 2.5 -15.5t6.5 -17.5t8 -14l8 -13l152 -176l133 148q14 14 21 30.5t7 32.5q0 35 -24.5 53.5t-73.5 18.5v76h377v-74q-2 -2 -4 -3t-4 -1 q-23 -4 -40.5 -10.5t-33.5 -14.5q-29 -16 -62.5 -50t-91.5 -99z" />
<glyph unicode="y" horiz-adv-x="980" d="M477 -10l-327 737l-11.5 23.5t-11.5 21.5q-23 41 -47.5 57.5t-59.5 16.5l-16 2v74h447v-74q-63 -4 -93 -22.5t-30 -55.5q0 -14 5 -32.5t15 -43.5l213 -485l176 448q10 20 14.5 41t4.5 37q0 51 -33 79t-98 32v76h354v-74q-49 -10 -81 -42t-56 -97l-31 -80l-315 -801 q-45 -113 -111 -167t-160 -54q-72 0 -117 32.5t-45 86.5q0 35 26 59.5t61 24.5q8 0 14 -1.5l14 -3.5q10 -4 20.5 -10t22.5 -16l23.5 -19.5t19.5 -11.5q6 -2 14.5 -3t18.5 -1q49 0 85 39t69 129z" />
<glyph unicode="z" horiz-adv-x="892" d="M821 0h-784v33l600 817h-215q-92 -2 -154.5 -35t-120.5 -113l-57 3v251h45q4 -6 7 -9t8 -5q18 -14 42.5 -18t86.5 -4l524 2q29 -2 36 -6.5t7 -24.5v-41l-578 -778h144h17q106 0 180 23q81 26 118 75l14 18l13 17q2 4 5 8t5 10q6 10 12 26l17 40l73 2z" />
<glyph unicode="{" horiz-adv-x="983" d="M211 471v39q102 14 164.5 73.5t62.5 135.5q0 25 -6 62.5t-18 86.5q-10 47 -16.5 88t-6.5 74q0 147 107.5 259t269.5 132v-37q-109 -23 -170 -85t-61 -156q0 -31 5 -68t13 -82q10 -51 15 -94t5 -74q0 -63 -26.5 -121.5t-79.5 -107.5l-19 -19q-9 -9 -20 -16 q-18 -14 -37.5 -26.5t-44.5 -22.5q-12 -4 -25 -9l-30 -11q139 -55 212 -142.5t73 -195.5q0 -20 -4.5 -55.5t-10.5 -71.5l-4 -19.5l-4 -19.5q-8 -45 -13 -82t-5 -66q0 -92 59 -155.5t172 -92.5v-34q-162 23 -268.5 132t-106.5 257q0 33 5 71.5t16 81.5q10 47 17 89t7 63 q0 84 -60.5 140.5t-166.5 76.5v2z" />
<glyph unicode="|" horiz-adv-x="1079" d="M473 1667h133v-1702h-133v1702z" />
<glyph unicode="}" horiz-adv-x="983" d="M772 510v-39q-102 -20 -164.5 -77.5t-62.5 -135.5q0 -27 6 -63.5t18 -88.5q10 -45 16.5 -84.5t6.5 -72.5q0 -147 -107.5 -259t-269.5 -132v39q109 20 170 82.5t61 156.5q0 31 -4 68t-14 82q-10 51 -15 92t-5 74q0 63 26.5 121.5t79.5 107.5q10 10 19.5 18.5t19.5 16.5 q16 12 33.5 22.5t38.5 20.5l30 13q16 7 35 13q-137 55 -210.5 142.5t-73.5 195.5q0 20 4 55t10 72l4 21l4 20q10 45 14 82t4 66q0 92 -59 155.5t-172 89.5v39q164 -25 269.5 -135t105.5 -256q0 -33 -5 -72.5t-16 -82.5q-10 -47 -17 -89.5t-7 -62.5q0 -82 60.5 -139.5 t166.5 -77.5v2z" />
<glyph unicode="~" horiz-adv-x="960" d="M893 1057h43q-2 -127 -71.5 -210t-170.5 -83h-7h-7q-51 2 -109.5 23.5t-152.5 72.5q-72 41 -115 57.5t-78 16.5q-63 0 -109 -47t-53 -123l-38 2q0 119 72.5 204t174.5 85h20q9 0 17 -2q43 -6 92.5 -26.5t128.5 -65.5q72 -39 117 -55.5t82 -16.5q68 0 112 44t52 122v2z " />
<glyph unicode="&#xa0;" />
<glyph unicode="&#xa1;" horiz-adv-x="598" d="M344 -395h-90q-35 0 -52.5 17.5t-17.5 51.5v17l72 909q2 27 8 35t23 8l32 2q12 -2 17.5 -10t7.5 -31l70 -907v-4q0 -2 2 -6v-4v-5q0 -39 -17.5 -56t-54.5 -17zM174 924q0 51 38 87t89 36q53 0 90 -36t37 -89t-37 -90t-90 -37q-51 0 -89 37.5t-38 89.5v2z" />
<glyph unicode="&#xa2;" horiz-adv-x="1130" d="M319 -236l95 265q-113 61 -174.5 172.5t-61.5 251.5v11v11q6 121 65.5 232.5t153.5 171.5q55 35 119 51t146 16h16q8 0 16 -2q6 0 14.5 -1t16.5 -1l6 2l100 285h80l-104 -295q84 -18 129 -64.5t45 -117.5q0 -39 -19.5 -63.5t-54.5 -24.5q-25 0 -40 7t-29 25 q-8 10 -16.5 25.5t-16.5 36.5q-4 10 -7 16t-7 12q-2 4 -5.5 7.5t-5.5 7.5l-6 6l-8 8l-223 -643q16 -8 30.5 -13t28.5 -9q18 -6 40 -8.5t46 -2.5q84 0 150.5 35t101.5 96l47 -28q-29 -121 -132 -193t-243 -72q-23 0 -39 1.5t-30 3.5l-29 8q-14 4 -33 10l-82 -236h-80z M477 213l221 639q-10 0 -17 1t-15 3q-8 0 -17.5 1t-23.5 1q-127 0 -205 -90t-78 -240q0 -94 35 -176t100 -141v2z" />
<glyph unicode="&#xa3;" horiz-adv-x="1386" d="M793 233h-267l-21 -67q-9 -29 -20 -53q-4 -12 -9 -24.5t-11 -25.5l-27 -55q-14 -29 -35 -65q39 12 66 18t51 8h14h13q27 0 50.5 -3t45.5 -9q41 -12 86 -41t111 -82q57 -47 95 -65.5t71 -20.5h4h4q41 0 69.5 20.5t28.5 51.5q0 16 -7 34.5t-24 41.5q-12 16 -19 27l-11 18 q-4 8 -7.5 18t-3.5 23q0 39 29 68.5t68 29.5q45 0 75.5 -37t30.5 -90q0 -137 -96 -239.5t-225 -102.5q-16 0 -32 2l-30 4q-43 12 -91 43t-120 90q-45 37 -76.5 58.5t-62.5 31.5q-20 6 -39.5 9.5t-44.5 3.5h-14q-6 0 -13 -3q-10 0 -19 -2t-22 -4l-12 -22q-57 -109 -105 -161 t-91 -52q-33 0 -56.5 26.5t-23.5 61.5q0 51 45 102t135 103l10 41l72 247l12 43h-250l17 84h258l18 64l66 240l45 155q20 68 41 121l31 81q15 38 34 73q4 6 7 11t5 11q27 51 58 97.5t65 86.5q72 82 161 123t196 41q106 0 176.5 -39t70.5 -98q0 -43 -22.5 -72.5t-52.5 -29.5 h-4h-4q-23 2 -44.5 16t-54.5 45q-25 23 -46 38t-42 26q-18 6 -36.5 10t-39.5 4q-57 0 -103 -36t-83 -107l-18 -37l-17 -35q-6 -12 -11 -26.5t-9 -30.5q-16 -41 -33 -105l-43 -174q-12 -53 -35 -134l-53 -192q-8 -33 -15.5 -57.5t-13.5 -40.5q-2 -6 -3 -13t-5 -18l260 2z" />
<glyph unicode="&#xa4;" horiz-adv-x="1366" d="M195 1061l88 90l129 -129q31 23 57.5 39t50.5 26q33 14 71 19.5t91 5.5q51 0 88 -5t72 -20q25 -10 52.5 -26.5t59.5 -40.5l127 131l88 -90l-127 -127l42 -68q17 -29 28 -55q12 -35 17.5 -70.5t5.5 -85.5q0 -53 -6.5 -91t-20.5 -72q-12 -23 -27.5 -47.5t-38.5 -53.5 l127 -127l-88 -88l-127 127q-37 -29 -65.5 -45t-57.5 -29q-33 -12 -68.5 -16t-82.5 -4q-53 0 -91 6t-73 21q-25 10 -49.5 26.5l-54.5 38.5l-127 -125l-90 88l129 129q-29 43 -46.5 77t-27.5 65t-13.5 61.5t-3.5 71.5q0 45 4.5 78.5t16.5 64.5q10 29 27.5 57.5t42.5 63.5z M358 662q0 -135 95.5 -231.5t228.5 -96.5q135 0 230.5 96t95.5 229q0 135 -94.5 230.5t-227.5 95.5q-135 0 -231.5 -95t-96.5 -231v3z" />
<glyph unicode="&#xa5;" horiz-adv-x="1357" d="M776 557h441v-82h-441v-162q0 -131 39 -184t133 -53l13 2v-78h-568v78h19q94 -2 132 51t38 182v164h-443v82h443v29l-133 215h-310v80h260l-178 293q-20 33 -36.5 56t-32.5 38q-25 25 -51.5 34t-71.5 15v80h553v-78q-82 -8 -112 -25.5t-30 -64.5q0 -20 6.5 -41t20.5 -43 l164 -264h231l90 147q29 45 42.5 78t17.5 61v9v8q0 63 -32 94t-108 39v80h455v-78q-23 -4 -41 -11.5t-35 -19.5q-29 -20 -60.5 -60t-76.5 -110l-149 -237h252v-80h-304l-137 -215v-29zM682 801l66 -107l65 107h-131z" />
<glyph unicode="&#xa6;" />
<glyph unicode="&#xa7;" horiz-adv-x="874" d="M88 979q18 203 138 322.5t306 119.5q102 0 170 -41t68 -104q0 -35 -26.5 -59.5t-63.5 -24.5q-8 0 -15.5 1t-15.5 3q-14 4 -30.5 14.5t-36.5 26.5q-59 47 -92 68.5t-62 23.5q-4 2 -9 2h-9q-45 0 -74 -30.5t-29 -79.5t36 -122t140 -237l136.5 -214t70.5 -132l11 -27l12 -26 q2 -4 3 -8t3 -9q18 -45 32.5 -93t24.5 -95q8 -49 13.5 -96t5.5 -94q0 -217 -115 -340t-320 -123q-113 0 -181 39t-68 102q0 37 29.5 61.5t72.5 24.5q12 0 22.5 -2t20.5 -6q14 -6 30.5 -18.5t37.5 -30.5q29 -29 53 -46.5t47 -25.5q12 -4 23.5 -6t23.5 -2q45 0 74.5 32.5 t29.5 79.5q0 39 -19 85.5t-60 109.5l-51 75l-56 83l-70 101l-49 75l-5 10q-3 6 -7 10l-12 22l-13 23q-29 53 -52 103.5t-42 101.5q-25 72 -39 157t-14 175v9q0 5 2 9v10v11v2zM508 618l-125 205q-68 111 -106.5 198t-49.5 153l-4 2q-12 -29 -21 -70t-16 -86q-2 -18 -3 -36.5 t-1 -35.5q0 -61 14.5 -135t41.5 -151l4 -13l4 -12l11 -30q5 -13 11 -27q4 -12 9.5 -24.5l11.5 -25.5q23 -45 56.5 -100t98.5 -149q72 -106 116 -182t71 -144q8 -18 13 -33.5t7 -30.5q4 -16 5 -32.5t1 -36.5h5q12 35 20 61.5t12 50.5q4 20 5 42t1 47q0 41 -3 80.5t-11 78.5 q-6 37 -15 73t-22 73q-23 68 -56.5 137.5t-84.5 150.5v2z" />
<glyph unicode="&#xa8;" horiz-adv-x="679" d="M164 1274q45 -2 76.5 -34t31.5 -77t-31.5 -76.5t-76.5 -31.5t-77 31.5t-32 76.5t32 77t77 32v2zM516 1274q47 -2 78 -34t31 -77t-31 -76.5t-78 -31.5q-45 0 -76.5 31.5t-31.5 76.5t31.5 77t76.5 32v2z" />
<glyph unicode="&#xa9;" horiz-adv-x="1556" d="M778 1386q293 -2 501 -209.5t208 -500.5t-208 -500t-501 -207t-500.5 207t-207.5 500t207.5 500.5t500.5 207.5v2zM778 1325q-268 -2 -457.5 -191.5t-189.5 -457.5t189.5 -457.5t457.5 -189.5t457.5 189.5t189.5 457.5t-189 457.5t-458 189.5v2zM1128 1135l21 -281h-39 q-35 115 -111.5 174t-191.5 59q-147 0 -234.5 -104t-87.5 -285q0 -199 87 -305t245 -106q98 0 176 40t135 122l37 -19q-70 -102 -164 -153.5t-219 -51.5q-197 0 -330 128t-133 317q0 199 143.5 331t356.5 132h30q13 0 25 -3q25 -4 52.5 -11t77.5 -23l19 -6.5t13 -2.5h4 q14 0 23.5 6.5t19.5 22.5q0 4 2 8l5 9z" />
<glyph unicode="&#xaa;" horiz-adv-x="641" d="M408 1126v58q0 63 -29 93t-94 30q-27 0 -50.5 -9.5t-39.5 -25.5q-6 -4 -9.5 -10.5t-3.5 -14.5q0 -4 2 -10t11 -18q10 -16 14 -25.5t4 -13.5t-3 -8.5t-7 -8.5l-68 -26q-2 -4 -5 -4h-7q-6 0 -15.5 12t-19.5 37q-2 10 -5 17t-3 15q0 59 71.5 101.5t174.5 42.5 q115 0 153.5 -36t38.5 -138v-228q0 -57 7 -73.5t28 -16.5q10 0 19.5 3t21.5 12l12 -41q-29 -33 -55.5 -47.5t-52.5 -14.5q-37 0 -60.5 23.5t-29.5 64.5q-39 -33 -72 -52t-64 -28q-14 -4 -29.5 -6t-31.5 -2q-63 0 -106.5 37t-43.5 94t47.5 96t157.5 74zM408 1081l-70 -26 l-76 -32q-31 -13 -49 -26q-18 -12 -26.5 -26.5t-8.5 -32.5q0 -33 27.5 -55.5t66.5 -22.5q25 0 47.5 6t42.5 21q12 8 23.5 17t22.5 20v157z" />
<glyph unicode="&#xab;" horiz-adv-x="704" d="M231 518l187 -457h-51l-304 457l304 461h51zM522 518l107 -366h-47l-207 366l207 359h47z" />
<glyph unicode="&#xac;" />
<glyph unicode="&#xad;" horiz-adv-x="1024" />
<glyph unicode="&#xae;" horiz-adv-x="1556" d="M778 1386q293 -2 501 -209.5t208 -500.5t-208 -500t-501 -207t-500.5 207t-207.5 500t207.5 500.5t500.5 207.5v2zM778 1325q-268 -2 -457.5 -191.5t-189.5 -457.5t189.5 -457.5t457.5 -189.5t457.5 189.5t189.5 457.5t-189 457.5t-458 189.5v2zM385 1114h387 q133 -2 215 -63.5t82 -161.5q0 -84 -54 -139.5t-169 -83.5l211 -295q16 -27 30.5 -43.5t26.5 -26.5q14 -10 29.5 -15t34.5 -5v-33h-185l-295 405h-75v-235v-74q0 -35 27.5 -49t90.5 -14v-33h-366v35q70 -2 87 20.5t17 114.5v526q0 88 -15 109.5t-79 23.5v37zM623 696h30 q121 -2 187.5 46.5t66.5 134.5q0 84 -56 137t-144 53h-17q-8 0 -14 -2q-12 0 -23.5 -3t-29.5 -9v-357z" />
<glyph unicode="&#xaf;" />
<glyph unicode="&#xb0;" />
<glyph unicode="&#xb1;" horiz-adv-x="1366" d="M139 86h1088v-131h-1088v131zM139 895h477v479h132v-479h479v-131h-479v-477h-132v477h-477v131z" />
<glyph unicode="&#xb2;" />
<glyph unicode="&#xb3;" />
<glyph unicode="&#xb4;" horiz-adv-x="681" d="M563 1393l-293 -346h-34l104 346h223z" />
<glyph unicode="&#xb5;" horiz-adv-x="1024" d="M119 915h164v-532v-66q2 -115 36.5 -170t106.5 -55q20 0 38.5 4t39.5 10q39 16 78 46t77 75v688h166v-653l-2 -47v-8q0 -59 19.5 -94t52.5 -35q31 0 51.5 31.5t28.5 91.5l41 2q-8 -115 -58.5 -173.5t-140.5 -58.5q-72 0 -109.5 45t-48.5 144q-33 -41 -59.5 -67.5 t-48.5 -45.5q-20 -16 -43 -28.5t-49 -20.5q-2 -2 -5 -3t-8 -3q-23 -10 -47 -15.5t-53 -5.5q-45 0 -76.5 14.5t-60.5 49.5q-2 4 -6 9t-8 11l-5 2v-45v-20v-19q2 -37 9.5 -80t23.5 -120q8 -31 11.5 -56.5t3.5 -46.5q0 -47 -27 -79.5t-68 -32.5q-39 0 -63.5 30.5t-24.5 79.5 q0 23 4 48.5t11 54.5l30 125q6 18 10.5 61t6.5 88q0 20 1 39.5t1 38.5v18v49v725z" />
<glyph unicode="&#xb6;" horiz-adv-x="927" d="M803 1300v-1742h-72v1742h-186v-1742h-74v1044h-29q-166 6 -261 50t-144 136q-23 43 -33 90.5t-10 98.5q0 176 118.5 276.5t329.5 100.5l494 2v-56h-133z" />
<glyph unicode="&#xb7;" />
<glyph unicode="&#xb8;" horiz-adv-x="681" d="M358 -25h27q78 -20 110.5 -52t32.5 -87q0 -82 -72.5 -137t-181.5 -55h-14h-14q-16 2 -38 6l-54 10l8 33q25 -4 39 -7t26 -3h5h6q53 0 92 31.5t39 78.5t-36 75t-108 36z" />
<glyph unicode="&#xb9;" />
<glyph unicode="&#xba;" horiz-adv-x="724" d="M59 1081q0 113 88.5 195t208.5 82q137 0 223.5 -80t86.5 -207q0 -125 -86 -209t-213 -84t-217.5 88t-90.5 213v2zM346 1313q-80 -2 -121 -50.5t-41 -142.5q0 -127 57.5 -212t139.5 -85q72 0 120 49.5t48 122.5q0 16 -1 32.5t-5 33.5q-8 59 -31 114.5t-53 88.5 q-20 23 -49 35t-64 12v2z" />
<glyph unicode="&#xbb;" horiz-adv-x="704" d="M483 518l-186 461h51l301 -461l-301 -457h-51zM193 518l-107 359h47l205 -359l-205 -366h-47z" />
<glyph unicode="&#xbc;" />
<glyph unicode="&#xbd;" horiz-adv-x="1855" d="M469 -45h-109l945 1491h108zM1737 186l-64 -186h-514v45l6 6l13 12q14 10 32.5 28t44.5 40l39 33l29 24q78 66 123 110t76 83q12 16 20 34.5t12 37.5q2 8 3.5 15t1.5 15q0 53 -38 92t-94 39q-55 0 -106 -38.5t-84 -104.5l-6 -10l-2 -4l-66 22l4 6q43 104 120 162t173 58 q98 0 168 -58.5t70 -142.5q0 -25 -7.5 -49.5t-21.5 -46.5q-16 -29 -45 -56.5t-72 -58.5q-43 -33 -66.5 -49.5t-27.5 -20.5l-80 -59l-71 -62l231 -4h6q47 -2 72.5 14.5t46.5 57.5l6 14l2 2h66zM403 1360v-563q0 -49 19.5 -72t62.5 -23l29 3v-52h-367v52h35q45 -2 65.5 19 t20.5 71v368q0 49 -16 69.5t-53 20.5l-47 2v52h12h12q10 -2 19.5 -1t17.5 1q41 4 77 16t50 27q4 4 7 6t5 2z" />
<glyph unicode="&#xbe;" />
<glyph unicode="&#xbf;" horiz-adv-x="788" d="M524 676h74v-49q0 -23 1 -43.5t3 -42.5q2 -20 5 -42t7 -42l13 -58v-9q0 -3 2 -7v-5v-7q0 -25 -12.5 -37t-55.5 -21q-6 -2 -12 -3t-14 -3q-18 -4 -38 -9t-38 -11q-29 -8 -56.5 -19.5t-52.5 -23.5l-8 -4l-8 -4q-39 -20 -66.5 -57.5t-36.5 -78.5q-2 -8 -3 -16t-1 -16 q0 -23 6.5 -48.5t18.5 -52.5q12 -25 28.5 -51.5t36.5 -48.5q25 -27 51.5 -46.5t55.5 -31.5q20 -8 39.5 -12t38.5 -4q16 0 32.5 3t30.5 9l53 20q10 2 21.5 5.5t24.5 3.5q41 0 64.5 -23.5t23.5 -62.5q0 -55 -49.5 -89t-131.5 -34q-33 0 -62.5 6t-55.5 18q-18 8 -38 19.5 t-40 25.5q-33 27 -60.5 53.5t-50.5 55.5q-2 4 -5 7t-5 7q-23 29 -43.5 63t-38.5 68l-27.5 54.5t-21.5 52.5q-10 31 -16.5 62.5t-6.5 64.5q0 113 68 184.5t223 126.5q78 29 104.5 68t28.5 133v2zM428 924q0 51 38 87t89 36q53 0 90 -36t37 -89t-37 -90t-90 -37 q-51 0 -89 37.5t-38 89.5v2z" />
<glyph unicode="&#xc0;" horiz-adv-x="1472" d="M586 1397h221l477 -1114q27 -63 45.5 -102.5t36.5 -61.5q20 -27 44 -35t58 -8v-76h-573v78q84 2 128 37t44 94v4v4q-2 16 -6 33.5t-14 42.5l-105 252h-543l-71 -193l-7.5 -22.5t-7.5 -20.5q-4 -16 -6 -33.5t-2 -31.5q0 -76 44 -118t130 -50v-76h-471v78q4 0 9.5 1t9.5 1 q16 4 28.5 9t22.5 13q4 2 8 5.5t8 7.5q4 2 7 5l8 7q8 6 15 14.5t13 18.5q16 23 35 65l53 127l393 979zM895 655l-231 555l-222 -555h453zM514 1833h223l105 -346h-35z" />
<glyph unicode="&#xc1;" horiz-adv-x="1472" d="M586 1397h221l477 -1114q27 -63 45.5 -102.5t36.5 -61.5q20 -27 44 -35t58 -8v-76h-573v78q84 2 128 37t44 94v4v4q-2 16 -6 33.5t-14 42.5l-105 252h-543l-71 -193l-7.5 -22.5t-7.5 -20.5q-4 -16 -6 -33.5t-2 -31.5q0 -76 44 -118t130 -50v-76h-471v78q4 0 9.5 1t9.5 1 q16 4 28.5 9t22.5 13q4 2 8 5.5t8 7.5q4 2 7 5l8 7q8 6 15 14.5t13 18.5q16 23 35 65l53 127l393 979zM895 655l-231 555l-222 -555h453zM958 1833l-292 -346h-35l104 346h223z" />
<glyph unicode="&#xc2;" horiz-adv-x="1472" d="M586 1397h221l477 -1114q27 -63 45.5 -102.5t36.5 -61.5q20 -27 44 -35t58 -8v-76h-573v78q84 2 128 37t44 94v4v4q-2 16 -6 33.5t-14 42.5l-105 252h-543l-71 -193l-7.5 -22.5t-7.5 -20.5q-4 -16 -6 -33.5t-2 -31.5q0 -76 44 -118t130 -50v-76h-471v78q4 0 9.5 1t9.5 1 q16 4 28.5 9t22.5 13q4 2 8 5.5t8 7.5q4 2 7 5l8 7q8 6 15 14.5t13 18.5q16 23 35 65l53 127l393 979zM895 655l-231 555l-222 -555h453zM643 1808h184l191 -329h-31l-272 211l-230 -211h-30z" />
<glyph unicode="&#xc3;" horiz-adv-x="1472" d="M586 1397h221l477 -1114q27 -63 45.5 -102.5t36.5 -61.5q20 -27 44 -35t58 -8v-76h-573v78q84 2 128 37t44 94v4v4q-2 16 -6 33.5t-14 42.5l-105 252h-543l-71 -193l-7.5 -22.5t-7.5 -20.5q-4 -16 -6 -33.5t-2 -31.5q0 -76 44 -118t130 -50v-76h-471v78q4 0 9.5 1t9.5 1 q16 4 28.5 9t22.5 13q4 2 8 5.5t8 7.5q4 2 7 5l8 7q8 6 15 14.5t13 18.5q16 23 35 65l53 127l393 979zM895 655l-231 555l-222 -555h453zM449 1473h-33q4 123 53 190.5t137 67.5q8 0 16.5 -1t16.5 -1q33 -6 69.5 -23.5t94.5 -56.5q47 -33 76.5 -45.5t50.5 -12.5 q41 0 61.5 31t32.5 109l31 2q2 -6 2 -12v-9q0 -106 -54.5 -176t-138.5 -70q-39 0 -87 20.5t-107 59.5q-47 33 -71 45.5t-42 14.5q-4 2 -8 2h-8q-35 0 -55.5 -24.5t-30.5 -82.5q-2 -6 -3 -13t-3 -18v3z" />
<glyph unicode="&#xc4;" horiz-adv-x="1472" d="M586 1397h221l477 -1114q27 -63 45.5 -102.5t36.5 -61.5q20 -27 44 -35t58 -8v-76h-573v78q84 2 128 37t44 94v4v4q-2 16 -6 33.5t-14 42.5l-105 252h-543l-71 -193l-7.5 -22.5t-7.5 -20.5q-4 -16 -6 -33.5t-2 -31.5q0 -76 44 -118t130 -50v-76h-471v78q4 0 9.5 1t9.5 1 q16 4 28.5 9t22.5 13q4 2 8 5.5t8 7.5q4 2 7 5l8 7q8 6 15 14.5t13 18.5q16 23 35 65l53 127l393 979zM895 655l-231 555l-222 -555h453zM561 1714q45 -2 77 -33.5t32 -76.5t-32 -77t-77 -32t-76.5 32t-31.5 77t31.5 76.5t76.5 31.5v2zM913 1714q47 -2 78 -33.5t31 -76.5 t-30.5 -77t-78.5 -32q-45 0 -76.5 32t-31.5 77t31.5 76.5t76.5 31.5v2z" />
<glyph unicode="&#xc5;" horiz-adv-x="1472" d="M586 1397h221l477 -1114q27 -63 45.5 -102.5t36.5 -61.5q20 -27 44 -35t58 -8v-76h-573v78q84 2 128 37t44 94v4v4q-2 16 -6 33.5t-14 42.5l-105 252h-543l-71 -193l-7.5 -22.5t-7.5 -20.5q-4 -16 -6 -33.5t-2 -31.5q0 -76 44 -118t130 -50v-76h-471v78q4 0 9.5 1t9.5 1 q16 4 28.5 9t22.5 13q4 2 8 5.5t8 7.5q4 2 7 5l8 7q8 6 15 14.5t13 18.5q16 23 35 65l53 127l393 979zM895 655l-231 555l-222 -555h453zM735 1851q80 -2 136.5 -58t56.5 -134q0 -80 -56.5 -136.5t-136.5 -56.5q-78 0 -134 56.5t-56 136.5q0 78 56 134t134 56v2zM737 1782 q-51 -2 -87 -37t-36 -86t36 -87t87 -36q49 0 85 36t36 87t-36 86t-85 35v2z" />
<glyph unicode="&#xc6;" horiz-adv-x="2048" d="M1081 680l121 -377q12 -39 23 -66l18 -51q29 -61 68 -75.5t129 -14.5l96 2q59 -2 92 2t62 19l14 9q8 5 16 11q14 10 26.5 20.5l25.5 22.5q18 16 37.5 40t43.5 59l54 77h78l-76 -358h-1090v78h23q78 -2 115.5 31.5t37.5 99.5q0 18 -4 38.5t-14 51.5l-123 381h-424 l-121 -264l-8 -21q-4 -10 -8 -18q-14 -37 -21.5 -74t-7.5 -65q0 -76 45 -116t144 -46v-76h-490v78q57 6 97 42t75 116l49 108l357 774q14 29 20 54.5t6 46.5q0 47 -34.5 70.5t-102.5 25.5v82h1212l99 -312h-72l-20 23q-72 76 -109 111.5t-65 52.5q-10 6 -21 10l-20 8 q-2 2 -3 2q-28 10 -62 14.5t-93 4.5l-406 2l183 -551h297q113 -2 153.5 25.5t40.5 101.5v10v10q-2 10 -3 23.5t-5 34.5l78 2l166 -486h-84l-31 46q-14 22 -31 38q-23 29 -47 49.5t-53 32.5q-10 6 -18.5 9.5t-16.5 7.5q-23 8 -53.5 10t-97.5 2zM829 762l-147 461l-211 -461 h358z" />
<glyph unicode="&#xc7;" horiz-adv-x="1599" d="M817 -25h27q78 -20 110.5 -52t32.5 -87q0 -82 -72.5 -137t-181.5 -55h-14h-14q-16 2 -38 6l-55 10l9 33q25 -4 39 -7t26 -3h5h5q53 0 92 31.5t39 78.5t-35.5 75t-107.5 36zM1466 1012h-65q-70 154 -201 245t-285 91q-242 0 -389 -174.5t-147 -456.5q0 -293 156.5 -475.5 t408.5 -182.5q100 0 186.5 30t145.5 85q47 41 75.5 96.5t49.5 135.5l76 2l-11 -322q-61 -27 -138 -48.5t-154 -35.5q-72 -12 -139.5 -19.5t-125.5 -7.5q-346 0 -563 197t-217 510q0 328 227.5 539t581.5 211q115 0 233.5 -25t245.5 -74z" />
<glyph unicode="&#xc8;" horiz-adv-x="1386" d="M53 0v78h27q104 -2 147 51t43 182v772q0 129 -43 182.5t-147 53.5l-27 2v76h1184v-312h-74q-31 76 -68.5 124t-88.5 71q-41 18 -92.5 24.5t-151.5 6.5l-275 2v-539h273q145 -2 206.5 41t69.5 152l82 2v-494h-82q-18 115 -77.5 161t-192.5 46l-279 2v-338 q0 -106 21.5 -157.5t79.5 -77.5q35 -16 77 -22.5t115 -6.5q100 0 165 11t118 38t92 63.5t74 96.5q6 12 13 24.5t13 24.5l93 2l-91 -342h-1204zM471 1833h223l105 -346h-35z" />
<glyph unicode="&#xc9;" horiz-adv-x="1386" d="M53 0v78h27q104 -2 147 51t43 182v772q0 129 -43 182.5t-147 53.5l-27 2v76h1184v-312h-74q-31 76 -68.5 124t-88.5 71q-41 18 -92.5 24.5t-151.5 6.5l-275 2v-539h273q145 -2 206.5 41t69.5 152l82 2v-494h-82q-18 115 -77.5 161t-192.5 46l-279 2v-338 q0 -106 21.5 -157.5t79.5 -77.5q35 -16 77 -22.5t115 -6.5q100 0 165 11t118 38t92 63.5t74 96.5q6 12 13 24.5t13 24.5l93 2l-91 -342h-1204zM915 1833l-292 -346h-35l104 346h223z" />
<glyph unicode="&#xca;" horiz-adv-x="1386" d="M53 0v78h27q104 -2 147 51t43 182v772q0 129 -43 182.5t-147 53.5l-27 2v76h1184v-312h-74q-31 76 -68.5 124t-88.5 71q-41 18 -92.5 24.5t-151.5 6.5l-275 2v-539h273q145 -2 206.5 41t69.5 152l82 2v-494h-82q-18 115 -77.5 161t-192.5 46l-279 2v-338 q0 -106 21.5 -157.5t79.5 -77.5q35 -16 77 -22.5t115 -6.5q100 0 165 11t118 38t92 63.5t74 96.5q6 12 13 24.5t13 24.5l93 2l-91 -342h-1204zM600 1808h184l191 -329h-31l-272 211l-230 -211h-30z" />
<glyph unicode="&#xcb;" horiz-adv-x="1386" d="M53 0v78h27q104 -2 147 51t43 182v772q0 129 -43 182.5t-147 53.5l-27 2v76h1184v-312h-74q-31 76 -68.5 124t-88.5 71q-41 18 -92.5 24.5t-151.5 6.5l-275 2v-539h273q145 -2 206.5 41t69.5 152l82 2v-494h-82q-18 115 -77.5 161t-192.5 46l-279 2v-338 q0 -106 21.5 -157.5t79.5 -77.5q35 -16 77 -22.5t115 -6.5q100 0 165 11t118 38t92 63.5t74 96.5q6 12 13 24.5t13 24.5l93 2l-91 -342h-1204zM518 1714q45 -2 77 -33.5t32 -76.5t-32 -77t-77 -32t-76.5 32t-31.5 77t31.5 76.5t76.5 31.5v2zM870 1714q47 -2 78 -33.5 t31 -76.5t-30.5 -77t-78.5 -32q-45 0 -76.5 32t-31.5 77t31.5 76.5t76.5 31.5v2z" />
<glyph unicode="&#xcc;" horiz-adv-x="768" d="M55 1397h658v-78h-29q-104 -2 -147 -55.5t-43 -182.5v-768q0 -131 43 -184t147 -53l29 2v-78h-658v78h33q104 -2 147.5 51t43.5 182v772q0 127 -43 180.5t-148 53.5l-33 2v78zM162 1833h223l104 -346h-34z" />
<glyph unicode="&#xcd;" horiz-adv-x="768" d="M55 1397h658v-78h-29q-104 -2 -147 -55.5t-43 -182.5v-768q0 -131 43 -184t147 -53l29 2v-78h-658v78h33q104 -2 147.5 51t43.5 182v772q0 127 -43 180.5t-148 53.5l-33 2v78zM606 1833l-293 -346h-34l104 346h223z" />
<glyph unicode="&#xce;" horiz-adv-x="768" d="M55 1397h658v-78h-29q-104 -2 -147 -55.5t-43 -182.5v-768q0 -131 43 -184t147 -53l29 2v-78h-658v78h33q104 -2 147.5 51t43.5 182v772q0 127 -43 180.5t-148 53.5l-33 2v78zM291 1808h184l191 -329h-31l-273 211l-229 -211h-31z" />
<glyph unicode="&#xcf;" horiz-adv-x="768" d="M55 1397h658v-78h-29q-104 -2 -147 -55.5t-43 -182.5v-768q0 -131 43 -184t147 -53l29 2v-78h-658v78h33q104 -2 147.5 51t43.5 182v772q0 127 -43 180.5t-148 53.5l-33 2v78zM209 1714q45 -2 76.5 -33.5t31.5 -76.5t-31.5 -77t-76.5 -32t-77 32t-32 77t32 76.5t77 31.5 v2zM561 1714q47 -2 78 -33.5t31 -76.5t-31 -77t-78 -32q-45 0 -76.5 32t-31.5 77t31.5 76.5t76.5 31.5v2z" />
<glyph unicode="&#xd0;" horiz-adv-x="1728" d="M287 684h-228v90h228v309q0 127 -43 180.5t-146 53.5l-39 2v78h719q139 -2 223 -11.5t156 -31.5q2 0 3 -1t3 -1q66 -20 127.5 -56t116.5 -86q111 -98 168 -225t57 -276q0 -242 -148.5 -430.5t-389.5 -249.5q-4 -2 -9.5 -3t-9.5 -1q-61 -14 -131 -20.5t-186 -6.5l-699 2 v78h39q102 -2 145.5 51t43.5 182v373zM504 684v-311q0 -72 2 -103.5t12 -56.5q0 -2 1 -5t3 -5q23 -55 75 -87t122 -32l78 2q72 -2 123 4t90 16q168 47 267 197t99 352q0 152 -49 276t-145 214q-41 39 -88 68.5t-101 50.5q-70 29 -150.5 39t-213.5 10l-125 2v-541h434v-90 h-434z" />
<glyph unicode="&#xd1;" horiz-adv-x="1728" d="M8 1397h334l1047 -1061l-17 670q-2 82 -14 136t-37 91q-27 41 -75 62.5t-105 21.5l-11 2v78h549v-78h-6q-100 -2 -156.5 -81t-56.5 -222v-10l13 -592q0 -16 1 -30.5t1 -27.5q2 -49 4 -80.5t6 -60.5q0 -12 3 -25.5t5 -27.5l18 -92l6.5 -36.5t2.5 -23.5q2 -6 2 -12v-14 h-133q-43 57 -85 107t-81 89l-848 873l16 -662q2 -104 9.5 -148t27.5 -75q2 -2 3 -4t3 -4q27 -39 77 -61.5t107 -22.5l19 2v-78h-584v78h31q111 -2 163 52t52 167v94l-10 754l-94 90q-8 6 -15.5 13l-15.5 14q-31 23 -66 35t-88 16zM578 1473h-33q4 123 53 190.5t137 67.5 q8 0 16.5 -1t16.5 -1q33 -6 69.5 -23.5t94.5 -56.5q47 -33 76.5 -45.5t50.5 -12.5q41 0 61.5 31t32.5 109l31 2q2 -6 2 -12v-9q0 -106 -54.5 -176t-138.5 -70q-39 0 -87 20.5t-107 59.5q-47 33 -70.5 45.5t-42.5 14.5q-4 2 -8 2h-8q-35 0 -55.5 -24.5t-30.5 -82.5 q-2 -6 -3 -13t-3 -18v3z" />
<glyph unicode="&#xd2;" />
<glyph unicode="&#xd3;" horiz-adv-x="1665" d="M106 672q0 326 205 536.5t523 210.5q311 0 515.5 -207.5t204.5 -521.5q0 -303 -216 -509t-537 -206q-295 0 -495 199t-200 496v2zM352 733q16 -305 155.5 -490.5t352.5 -185.5q203 0 326 154t123 401q0 145 -39 283.5t-109 243.5q-61 92 -159.5 144t-208.5 52 q-88 0 -167 -34.5t-141 -104.5q-70 -76 -102.5 -176t-32.5 -240v-24q0 -12 2 -25v2zM1055 1833l-293 -346h-35l104 346h224z" />
<glyph unicode="&#xd4;" horiz-adv-x="1665" d="M106 672q0 326 205 536.5t523 210.5q311 0 515.5 -207.5t204.5 -521.5q0 -303 -216 -509t-537 -206q-295 0 -495 199t-200 496v2zM352 733q16 -305 155.5 -490.5t352.5 -185.5q203 0 326 154t123 401q0 145 -39 283.5t-109 243.5q-61 92 -159.5 144t-208.5 52 q-88 0 -167 -34.5t-141 -104.5q-70 -76 -102.5 -176t-32.5 -240v-24q0 -12 2 -25v2zM739 1808h185l190 -329h-31l-272 211l-229 -211h-31z" />
<glyph unicode="&#xd5;" horiz-adv-x="1665" d="M106 672q0 326 205 536.5t523 210.5q311 0 515.5 -207.5t204.5 -521.5q0 -303 -216 -509t-537 -206q-295 0 -495 199t-200 496v2zM352 733q16 -305 155.5 -490.5t352.5 -185.5q203 0 326 154t123 401q0 145 -39 283.5t-109 243.5q-61 92 -159.5 144t-208.5 52 q-88 0 -167 -34.5t-141 -104.5q-70 -76 -102.5 -176t-32.5 -240v-24q0 -12 2 -25v2zM545 1473h-33q4 123 53 190.5t137 67.5q8 0 16.5 -1t16.5 -1q33 -6 70 -23.5t94 -56.5q47 -33 77 -45.5t50 -12.5q41 0 61.5 31t32.5 109l31 2q2 -6 2 -12v-9q0 -106 -54.5 -176 t-137.5 -70q-39 0 -87.5 20.5t-107.5 59.5q-47 33 -70.5 45.5t-42.5 14.5q-4 2 -8 2h-8q-35 0 -55.5 -24.5t-30.5 -82.5q-2 -6 -3 -13t-3 -18v3z" />
<glyph unicode="&#xd6;" horiz-adv-x="1665" d="M106 672q0 326 205 536.5t523 210.5q311 0 515.5 -207.5t204.5 -521.5q0 -303 -216 -509t-537 -206q-295 0 -495 199t-200 496v2zM352 733q16 -305 155.5 -490.5t352.5 -185.5q203 0 326 154t123 401q0 145 -39 283.5t-109 243.5q-61 92 -159.5 144t-208.5 52 q-88 0 -167 -34.5t-141 -104.5q-70 -76 -102.5 -176t-32.5 -240v-24q0 -12 2 -25v2zM657 1714q45 -2 77 -33.5t32 -76.5t-32 -77t-77 -32t-76.5 32t-31.5 77t31.5 76.5t76.5 31.5v2zM1010 1714q47 -2 77.5 -33.5t30.5 -76.5t-30.5 -77t-77.5 -32q-45 0 -77 32t-32 77 t32 76.5t77 31.5v2z" />
<glyph unicode="&#xd7;" />
<glyph unicode="&#xd8;" horiz-adv-x="1665" d="M1257 1292l132 160l69 -59l-131 -156q109 -106 169 -247.5t60 -297.5q0 -307 -217 -512t-540 -205q-119 0 -217.5 32t-186.5 97l-6 5l-139 -168l-64 57l138 166q-113 106 -164 228t-51 284q0 324 205.5 533.5t521.5 209.5q121 0 224 -31.5t197 -97.5v2zM1198 1081 l-694 -833q68 -92 161 -141.5t197 -49.5q201 0 324 154t123 403q0 29 -2 58l-4 57q-10 94 -37 184.5t-64 159.5zM457 324l692 835q-63 82 -157.5 130t-196.5 48q-90 0 -169 -35.5t-141 -105.5q-70 -76 -101.5 -176t-31.5 -238v-24q0 -12 2 -27q4 -113 31 -221.5t72 -187.5v2 z" />
<glyph unicode="&#xd9;" horiz-adv-x="1705" d="M43 1397h672v-78h-23q-121 -2 -165 -52t-44 -186v-549q0 -137 23.5 -208.5t87.5 -124.5q59 -51 139 -77t176 -26q121 0 210 36t155 112q29 35 48 70.5t30 72.5q6 25 11 61.5t7 75.5q2 20 3 41t1 39v10l-6 392v92q-2 109 -57.5 164t-165.5 55l-19 2v78h551v-78h-6 q-102 -2 -155.5 -58.5t-53.5 -164.5v-90v-400q0 -86 -4 -138t-12 -99q-2 -8 -4 -17.5t-4 -17.5q-12 -53 -38 -101.5t-61 -87.5q-82 -88 -195.5 -129t-277.5 -41q-225 0 -378.5 83t-198.5 229q-2 10 -5 20t-5 19q-8 35 -10.5 77.5t-2.5 128.5v551q0 127 -43 180.5t-145 53.5 l-35 2v78zM631 1833h223l104 -346h-34z" />
<glyph unicode="&#xda;" horiz-adv-x="1705" d="M43 1397h672v-78h-23q-121 -2 -165 -52t-44 -186v-549q0 -137 23.5 -208.5t87.5 -124.5q59 -51 139 -77t176 -26q121 0 210 36t155 112q29 35 48 70.5t30 72.5q6 25 11 61.5t7 75.5q2 20 3 41t1 39v10l-6 392v92q-2 109 -57.5 164t-165.5 55l-19 2v78h551v-78h-6 q-102 -2 -155.5 -58.5t-53.5 -164.5v-90v-400q0 -86 -4 -138t-12 -99q-2 -8 -4 -17.5t-4 -17.5q-12 -53 -38 -101.5t-61 -87.5q-82 -88 -195.5 -129t-277.5 -41q-225 0 -378.5 83t-198.5 229q-2 10 -5 20t-5 19q-8 35 -10.5 77.5t-2.5 128.5v551q0 127 -43 180.5t-145 53.5 l-35 2v78zM1075 1833l-293 -346h-34l104 346h223z" />
<glyph unicode="&#xdb;" horiz-adv-x="1705" d="M43 1397h672v-78h-23q-121 -2 -165 -52t-44 -186v-549q0 -137 23.5 -208.5t87.5 -124.5q59 -51 139 -77t176 -26q121 0 210 36t155 112q29 35 48 70.5t30 72.5q6 25 11 61.5t7 75.5q2 20 3 41t1 39v10l-6 392v92q-2 109 -57.5 164t-165.5 55l-19 2v78h551v-78h-6 q-102 -2 -155.5 -58.5t-53.5 -164.5v-90v-400q0 -86 -4 -138t-12 -99q-2 -8 -4 -17.5t-4 -17.5q-12 -53 -38 -101.5t-61 -87.5q-82 -88 -195.5 -129t-277.5 -41q-225 0 -378.5 83t-198.5 229q-2 10 -5 20t-5 19q-8 35 -10.5 77.5t-2.5 128.5v551q0 127 -43 180.5t-145 53.5 l-35 2v78zM760 1808h184l191 -329h-31l-273 211l-229 -211h-31z" />
<glyph unicode="&#xdc;" horiz-adv-x="1705" d="M43 1397h672v-78h-23q-121 -2 -165 -52t-44 -186v-549q0 -137 23.5 -208.5t87.5 -124.5q59 -51 139 -77t176 -26q121 0 210 36t155 112q29 35 48 70.5t30 72.5q6 25 11 61.5t7 75.5q2 20 3 41t1 39v10l-6 392v92q-2 109 -57.5 164t-165.5 55l-19 2v78h551v-78h-6 q-102 -2 -155.5 -58.5t-53.5 -164.5v-90v-400q0 -86 -4 -138t-12 -99q-2 -8 -4 -17.5t-4 -17.5q-12 -53 -38 -101.5t-61 -87.5q-82 -88 -195.5 -129t-277.5 -41q-225 0 -378.5 83t-198.5 229q-2 10 -5 20t-5 19q-8 35 -10.5 77.5t-2.5 128.5v551q0 127 -43 180.5t-145 53.5 l-35 2v78zM678 1714q45 -2 76.5 -33.5t31.5 -76.5t-31.5 -77t-76.5 -32t-77 32t-32 77t32 76.5t77 31.5v2zM1030 1714q47 -2 78 -33.5t31 -76.5t-31 -77t-78 -32q-45 0 -76.5 32t-31.5 77t31.5 76.5t76.5 31.5v2z" />
<glyph unicode="&#xdd;" />
<glyph unicode="&#xde;" horiz-adv-x="1300" d="M68 1397h634v-78h-20q-94 -2 -141 -51t-47 -150v-35h129q184 -2 270 -11t151 -40q6 -4 11.5 -6t11.5 -6q84 -41 132 -125t48 -184q0 -178 -140 -288t-370 -110q-70 0 -106.5 15.5t-36.5 44.5q0 23 15.5 33t41.5 10l45 2h19q123 -2 202.5 76.5t79.5 197.5v11v12 q-6 63 -34.5 122.5t-75.5 94.5q-41 35 -100.5 50t-141.5 15l-151 2v-686q0 -131 43 -184t145 -53l45 2v-78h-659v78h20q102 -2 145 51t43 182v774q0 127 -41.5 179.5t-146.5 52.5l-20 2v78z" />
<glyph unicode="&#xdf;" horiz-adv-x="1173" d="M201 811h-156v53q0 27 12.5 37t51.5 17q43 8 61 28.5t33 77.5l24 92q23 88 83.5 163t135.5 110q39 16 87.5 25t101.5 9q170 0 279.5 -83t109.5 -214q0 -100 -68.5 -166.5t-222.5 -119.5v-2q8 -4 16.5 -5.5t16.5 -3.5q47 -10 77.5 -21t59.5 -30q10 -6 21 -14l20 -16 q59 -49 98 -131t45 -171q2 -8 3 -17v-17q0 -14 -1.5 -28.5t-3.5 -29.5q-12 -96 -59 -184t-115 -137q-20 -14 -51 -25.5t-63 -15.5q-12 -4 -26.5 -5t-27.5 -1q-78 0 -128 36.5t-50 98.5q0 37 24.5 61.5t59.5 24.5t52.5 -20.5t21.5 -63.5q4 -37 20.5 -54.5t49.5 -17.5 q55 0 93 74t38 180q0 131 -58.5 249t-154.5 173q-8 6 -17 10l-16 8q-12 6 -24.5 10.5t-26.5 8.5q-12 4 -26 7l-32 7v86q133 23 199 87.5t66 166.5q0 92 -68 156.5t-166 64.5q-68 0 -122 -34.5t-77 -94.5q-4 -8 -7 -17t-5 -17q-10 -35 -14 -76t-4 -113v-717q0 -98 28.5 -148 t81.5 -50l6 2v-74h-442v78h8q74 -2 111 56.5t37 176.5v500z" />
<glyph unicode="&#xe0;" horiz-adv-x="980" d="M625 555v94q0 109 -44 158t-145 49q-41 0 -79 -14.5t-62 -42.5q-8 -8 -12 -18.5t-4 -20.5v-4v-4q2 -8 6 -17.5t12 -25.5q16 -27 22.5 -41.5t6.5 -24.5q0 -8 -4.5 -14t-12.5 -11l-104 -47q-6 -4 -10.5 -5t-6.5 -1h-3q-11 4 -22 21.5t-30 62.5q-2 6 -5 13.5t-3 13.5 q-2 6 -3 13t-1 13q0 100 110.5 170t266.5 70q113 0 186.5 -31.5t95.5 -91.5q2 -4 3 -8t1 -8q8 -25 10.5 -55.5t2.5 -98.5v-377q0 -98 9 -123.5t42 -25.5q14 0 29.5 6t33.5 16l19 -69q-33 -39 -62.5 -60.5t-58.5 -29.5q-12 -4 -23.5 -6.5t-23.5 -2.5q-57 0 -93 38t-44 108 q-63 -57 -115.5 -90t-101.5 -45q-20 -4 -41 -7.5t-43 -3.5q-100 0 -166 62.5t-66 157.5q0 51 22.5 95t65.5 77q2 0 3 1l3 3q20 16 45 30.5t54 28.5l54.5 21.5t66.5 23.5zM625 477l-109 -41l-114 -50t-74 -40q-31 -23 -43.5 -47.5t-12.5 -54.5q0 -57 41 -94t105 -37 q45 0 86 16t80 51q10 8 20 19l21 20v258zM268 1393h224l104 -346h-35z" />
<glyph unicode="&#xe1;" horiz-adv-x="980" d="M625 555v94q0 109 -44 158t-145 49q-41 0 -79 -14.5t-62 -42.5q-8 -8 -12 -18.5t-4 -20.5v-4v-4q2 -8 6 -17.5t12 -25.5q16 -27 22.5 -41.5t6.5 -24.5q0 -8 -4.5 -14t-12.5 -11l-104 -47q-6 -4 -10.5 -5t-6.5 -1h-3q-11 4 -22 21.5t-30 62.5q-2 6 -5 13.5t-3 13.5 q-2 6 -3 13t-1 13q0 100 110.5 170t266.5 70q113 0 186.5 -31.5t95.5 -91.5q2 -4 3 -8t1 -8q8 -25 10.5 -55.5t2.5 -98.5v-377q0 -98 9 -123.5t42 -25.5q14 0 29.5 6t33.5 16l19 -69q-33 -39 -62.5 -60.5t-58.5 -29.5q-12 -4 -23.5 -6.5t-23.5 -2.5q-57 0 -93 38t-44 108 q-63 -57 -115.5 -90t-101.5 -45q-20 -4 -41 -7.5t-43 -3.5q-100 0 -166 62.5t-66 157.5q0 51 22.5 95t65.5 77q2 0 3 1l3 3q20 16 45 30.5t54 28.5l54.5 21.5t66.5 23.5zM625 477l-109 -41l-114 -50t-74 -40q-31 -23 -43.5 -47.5t-12.5 -54.5q0 -57 41 -94t105 -37 q45 0 86 16t80 51q10 8 20 19l21 20v258zM713 1393l-293 -346h-35l104 346h224z" />
<glyph unicode="&#xe2;" horiz-adv-x="980" d="M625 555v94q0 109 -44 158t-145 49q-41 0 -79 -14.5t-62 -42.5q-8 -8 -12 -18.5t-4 -20.5v-4v-4q2 -8 6 -17.5t12 -25.5q16 -27 22.5 -41.5t6.5 -24.5q0 -8 -4.5 -14t-12.5 -11l-104 -47q-6 -4 -10.5 -5t-6.5 -1h-3q-11 4 -22 21.5t-30 62.5q-2 6 -5 13.5t-3 13.5 q-2 6 -3 13t-1 13q0 100 110.5 170t266.5 70q113 0 186.5 -31.5t95.5 -91.5q2 -4 3 -8t1 -8q8 -25 10.5 -55.5t2.5 -98.5v-377q0 -98 9 -123.5t42 -25.5q14 0 29.5 6t33.5 16l19 -69q-33 -39 -62.5 -60.5t-58.5 -29.5q-12 -4 -23.5 -6.5t-23.5 -2.5q-57 0 -93 38t-44 108 q-63 -57 -115.5 -90t-101.5 -45q-20 -4 -41 -7.5t-43 -3.5q-100 0 -166 62.5t-66 157.5q0 51 22.5 95t65.5 77q2 0 3 1l3 3q20 16 45 30.5t54 28.5l54.5 21.5t66.5 23.5zM625 477l-109 -41l-114 -50t-74 -40q-31 -23 -43.5 -47.5t-12.5 -54.5q0 -57 41 -94t105 -37 q45 0 86 16t80 51q10 8 20 19l21 20v258zM397 1368h185l190 -330h-31l-272 211l-229 -211h-31z" />
<glyph unicode="&#xe3;" horiz-adv-x="980" d="M625 555v94q0 109 -44 158t-145 49q-41 0 -79 -14.5t-62 -42.5q-8 -8 -12 -18.5t-4 -20.5v-4v-4q2 -8 6 -17.5t12 -25.5q16 -27 22.5 -41.5t6.5 -24.5q0 -8 -4.5 -14t-12.5 -11l-104 -47q-6 -4 -10.5 -5t-6.5 -1h-3q-11 4 -22 21.5t-30 62.5q-2 6 -5 13.5t-3 13.5 q-2 6 -3 13t-1 13q0 100 110.5 170t266.5 70q113 0 186.5 -31.5t95.5 -91.5q2 -4 3 -8t1 -8q8 -25 10.5 -55.5t2.5 -98.5v-377q0 -98 9 -123.5t42 -25.5q14 0 29.5 6t33.5 16l19 -69q-33 -39 -62.5 -60.5t-58.5 -29.5q-12 -4 -23.5 -6.5t-23.5 -2.5q-57 0 -93 38t-44 108 q-63 -57 -115.5 -90t-101.5 -45q-20 -4 -41 -7.5t-43 -3.5q-100 0 -166 62.5t-66 157.5q0 51 22.5 95t65.5 77q2 0 3 1l3 3q20 16 45 30.5t54 28.5l54.5 21.5t66.5 23.5zM625 477l-109 -41l-114 -50t-74 -40q-31 -23 -43.5 -47.5t-12.5 -54.5q0 -57 41 -94t105 -37 q45 0 86 16t80 51q10 8 20 19l21 20v258zM203 1032h-33q4 123 53 190.5t137 67.5q8 0 16.5 -1t16.5 -1q33 -6 70 -23.5t94 -56.5q47 -33 77 -45t50 -12q41 0 61.5 30.5t32.5 108.5l31 2q2 -6 2 -11v-9q0 -106 -54.5 -176t-138.5 -70q-39 0 -87 20.5t-107 59.5 q-47 33 -70.5 45t-42.5 14q-4 2 -8 2h-8q-35 0 -55.5 -24.5t-30.5 -81.5q-2 -6 -3 -13.5t-3 -17.5v2z" />
<glyph unicode="&#xe4;" horiz-adv-x="980" d="M625 555v94q0 109 -44 158t-145 49q-41 0 -79 -14.5t-62 -42.5q-8 -8 -12 -18.5t-4 -20.5v-4v-4q2 -8 6 -17.5t12 -25.5q16 -27 22.5 -41.5t6.5 -24.5q0 -8 -4.5 -14t-12.5 -11l-104 -47q-6 -4 -10.5 -5t-6.5 -1h-3q-11 4 -22 21.5t-30 62.5q-2 6 -5 13.5t-3 13.5 q-2 6 -3 13t-1 13q0 100 110.5 170t266.5 70q113 0 186.5 -31.5t95.5 -91.5q2 -4 3 -8t1 -8q8 -25 10.5 -55.5t2.5 -98.5v-377q0 -98 9 -123.5t42 -25.5q14 0 29.5 6t33.5 16l19 -69q-33 -39 -62.5 -60.5t-58.5 -29.5q-12 -4 -23.5 -6.5t-23.5 -2.5q-57 0 -93 38t-44 108 q-63 -57 -115.5 -90t-101.5 -45q-20 -4 -41 -7.5t-43 -3.5q-100 0 -166 62.5t-66 157.5q0 51 22.5 95t65.5 77q2 0 3 1l3 3q20 16 45 30.5t54 28.5l54.5 21.5t66.5 23.5zM625 477l-109 -41l-114 -50t-74 -40q-31 -23 -43.5 -47.5t-12.5 -54.5q0 -57 41 -94t105 -37 q45 0 86 16t80 51q10 8 20 19l21 20v258zM315 1274q45 -2 77 -34t32 -77t-32 -76.5t-77 -31.5t-76.5 31.5t-31.5 76.5t31.5 77t76.5 32v2zM668 1274q47 -2 77.5 -34t30.5 -77t-30.5 -76.5t-77.5 -31.5q-45 0 -77 31.5t-32 76.5t32 77t77 32v2z" />
<glyph unicode="&#xe5;" horiz-adv-x="980" d="M625 555v94q0 109 -44 158t-145 49q-41 0 -79 -14.5t-62 -42.5q-8 -8 -12 -18.5t-4 -20.5v-4v-4q2 -8 6 -17.5t12 -25.5q16 -27 22.5 -41.5t6.5 -24.5q0 -8 -4.5 -14t-12.5 -11l-104 -47q-6 -4 -10.5 -5t-6.5 -1h-3q-11 4 -22 21.5t-30 62.5q-2 6 -5 13.5t-3 13.5 q-2 6 -3 13t-1 13q0 100 110.5 170t266.5 70q113 0 186.5 -31.5t95.5 -91.5q2 -4 3 -8t1 -8q8 -25 10.5 -55.5t2.5 -98.5v-377q0 -98 9 -123.5t42 -25.5q14 0 29.5 6t33.5 16l19 -69q-33 -39 -62.5 -60.5t-58.5 -29.5q-12 -4 -23.5 -6.5t-23.5 -2.5q-57 0 -93 38t-44 108 q-63 -57 -115.5 -90t-101.5 -45q-20 -4 -41 -7.5t-43 -3.5q-100 0 -166 62.5t-66 157.5q0 51 22.5 95t65.5 77q2 0 3 1l3 3q20 16 45 30.5t54 28.5l54.5 21.5t66.5 23.5zM625 477l-109 -41l-114 -50t-74 -40q-31 -23 -43.5 -47.5t-12.5 -54.5q0 -57 41 -94t105 -37 q45 0 86 16t80 51q10 8 20 19l21 20v258zM489 1411q80 -2 136.5 -58.5t56.5 -133.5q0 -80 -56.5 -136.5t-136.5 -56.5q-78 0 -134 56.5t-56 136.5q0 78 56.5 134t133.5 56v2zM492 1341q-51 -2 -87 -36.5t-36 -85.5t35.5 -87t87.5 -36q49 0 84.5 35.5t35.5 87.5 q0 51 -35.5 85.5t-84.5 34.5v2z" />
<glyph unicode="&#xe6;" horiz-adv-x="1404" d="M786 496v-43q0 -158 64.5 -230.5t202.5 -72.5q90 0 157.5 28.5t116.5 85.5l43 -39q-37 -68 -79 -117t-89 -75q-33 -20 -76 -32.5t-88 -18.5q-14 -2 -29.5 -3.5t-29.5 -1.5q-100 0 -182 42t-144 128q-45 -43 -89 -74.5t-87 -54.5q-45 -20 -89 -30.5t-89 -10.5 q-102 0 -164.5 57.5t-62.5 155.5q0 59 30.5 113.5t83.5 87.5q61 41 169 76t245 61l12 4v76q0 125 -37.5 186.5t-119.5 61.5q-76 0 -130.5 -31.5t-54.5 -74.5q0 -8 4.5 -21.5t10.5 -26.5q4 -8 8 -14l8 -12q8 -10 11 -15.5t5 -11.5v-1v-3q0 -8 -6 -17.5t-14 -13.5l-78 -39 q-8 -6 -15 -8t-16 -2q-31 0 -55 46t-24 104q0 94 121.5 160.5t289.5 66.5q90 0 147.5 -28.5t90.5 -94.5q45 59 110.5 91t149.5 32q139 0 228 -89t97 -239zM612 221v240q-8 -4 -15 -5t-13 -3q-8 0 -17 -2l-16 -5q-18 -4 -38.5 -11t-53.5 -17q-117 -37 -164 -78t-47 -104 q0 -51 41 -87t100 -36q12 0 23.5 1t21.5 3q47 8 92 34.5t86 67.5v2zM786 569l365 80q-23 106 -67 156.5t-117 50.5q-94 0 -137.5 -61.5t-43.5 -200.5v-25z" />
<glyph unicode="&#xe7;" horiz-adv-x="960" d="M498 -25h26q78 -20 111 -52t33 -87q0 -82 -73 -137t-181 -55h-15h-14q-16 2 -38 6l-54 10l8 33q25 -4 39 -7t27 -3h5h5q53 0 92 31.5t39 78.5t-36 75t-107 36zM854 270l49 -30q-33 -123 -134 -193t-243 -70q-193 0 -313.5 132.5t-120.5 341.5q0 219 134 355t347 136 q152 0 238 -48t86 -136q0 -45 -20.5 -72t-57.5 -27q-23 0 -39 9.5t-32 33.5q-6 8 -12.5 19.5t-12.5 26.5q-29 61 -70 85.5t-112 24.5q-129 0 -207 -92t-78 -244q0 -162 98.5 -273.5t241.5 -111.5q88 0 152.5 33t105.5 98v2z" />
<glyph unicode="&#xe8;" horiz-adv-x="960" d="M895 567h-651q0 -96 16 -158.5t53 -117.5q2 -4 5.5 -8t5.5 -9q51 -70 119.5 -104.5t152.5 -34.5q72 0 135.5 25.5t122.5 77.5l41 -37q-66 -109 -164 -166.5t-217 -57.5q-186 0 -306 133.5t-120 338.5q0 211 124 352t304 141q158 0 265.5 -106.5t113.5 -270.5v2zM254 641 h426q-12 106 -64.5 165.5t-136.5 59.5q-90 0 -149.5 -61.5t-75.5 -165.5v2zM258 1393h223l105 -346h-35z" />
<glyph unicode="&#xe9;" horiz-adv-x="960" d="M895 567h-651q0 -96 16 -158.5t53 -117.5q2 -4 5.5 -8t5.5 -9q51 -70 119.5 -104.5t152.5 -34.5q72 0 135.5 25.5t122.5 77.5l41 -37q-66 -109 -164 -166.5t-217 -57.5q-186 0 -306 133.5t-120 338.5q0 211 124 352t304 141q158 0 265.5 -106.5t113.5 -270.5v2zM254 641 h426q-12 106 -64.5 165.5t-136.5 59.5q-90 0 -149.5 -61.5t-75.5 -165.5v2zM702 1393l-292 -346h-35l104 346h223z" />
<glyph unicode="&#xea;" horiz-adv-x="960" d="M895 567h-651q0 -96 16 -158.5t53 -117.5q2 -4 5.5 -8t5.5 -9q51 -70 119.5 -104.5t152.5 -34.5q72 0 135.5 25.5t122.5 77.5l41 -37q-66 -109 -164 -166.5t-217 -57.5q-186 0 -306 133.5t-120 338.5q0 211 124 352t304 141q158 0 265.5 -106.5t113.5 -270.5v2zM254 641 h426q-12 106 -64.5 165.5t-136.5 59.5q-90 0 -149.5 -61.5t-75.5 -165.5v2zM387 1368h184l191 -330h-31l-272 211l-230 -211h-30z" />
<glyph unicode="&#xeb;" horiz-adv-x="960" d="M895 567h-651q0 -96 16 -158.5t53 -117.5q2 -4 5.5 -8t5.5 -9q51 -70 119.5 -104.5t152.5 -34.5q72 0 135.5 25.5t122.5 77.5l41 -37q-66 -109 -164 -166.5t-217 -57.5q-186 0 -306 133.5t-120 338.5q0 211 124 352t304 141q158 0 265.5 -106.5t113.5 -270.5v2zM254 641 h426q-12 106 -64.5 165.5t-136.5 59.5q-90 0 -149.5 -61.5t-75.5 -165.5v2zM305 1274q45 -2 77 -34t32 -77t-32 -76.5t-77 -31.5t-76.5 31.5t-31.5 76.5t31.5 77t76.5 32v2zM657 1274q47 -2 78 -34t31 -77t-30.5 -76.5t-78.5 -31.5q-45 0 -76.5 31.5t-31.5 76.5t31.5 77 t76.5 32v2z" />
<glyph unicode="&#xec;" horiz-adv-x="555" d="M381 944v-674q0 -100 29.5 -149t89.5 -49l8 2v-74h-455v74h19q72 -2 104.5 44t32.5 150v451l-156 82v37l279 106h49zM55 1393h224l104 -346h-35z" />
<glyph unicode="&#xed;" horiz-adv-x="555" d="M381 944v-674q0 -100 29.5 -149t89.5 -49l8 2v-74h-455v74h19q72 -2 104.5 44t32.5 150v451l-156 82v37l279 106h49zM500 1393l-293 -346h-35l104 346h224z" />
<glyph unicode="&#xee;" horiz-adv-x="555" d="M381 944v-674q0 -100 29.5 -149t89.5 -49l8 2v-74h-455v74h19q72 -2 104.5 44t32.5 150v451l-156 82v37l279 106h49zM184 1368h185l190 -330h-31l-272 211l-229 -211h-31z" />
<glyph unicode="&#xef;" horiz-adv-x="555" d="M381 944v-674q0 -100 29.5 -149t89.5 -49l8 2v-74h-455v74h19q72 -2 104.5 44t32.5 150v451l-156 82v37l279 106h49zM102 1274q45 -2 77 -34t32 -77t-32 -76.5t-77 -31.5t-75.5 31.5t-30.5 76.5t30.5 77t75.5 32v2zM455 1274q47 -2 77.5 -34t30.5 -77t-30.5 -76.5 t-77.5 -31.5q-45 0 -77 31.5t-32 76.5t32 77t77 32v2z" />
<glyph unicode="&#xf0;" horiz-adv-x="1052" d="M506 1296l178 119l37 -51l-158 -107q164 -109 276.5 -299t133.5 -399q2 -20 3 -40.5t1 -41.5q0 -209 -135 -353t-330 -144q-193 0 -332 142t-139 341t130 337t316 138q20 0 37 -1t33 -5q23 -4 48.5 -15.5t60.5 -29.5l4 6l-27.5 47.5t-24.5 38.5q-4 8 -9 15t-11 14l-16 20 l-19 23q-8 10 -16 18t-15 16q-6 4 -11 10l-9 9l-35 30q-18 15 -47 35l-252 -168l-35 54l236 157l-21 13l-82 47l-90 43l-22 12l80 88l26 -10l45 -19q20 -8 39 -14l21.5 -9t21.5 -11q20 -8 42 -19.5t46 -25.5zM791 334v26q0 27 -2.5 58t-8.5 63q-10 68 -29.5 131.5 t-45.5 110.5q-39 72 -94.5 108.5t-127.5 36.5q-117 0 -183.5 -78.5t-66.5 -218.5q0 -236 83 -378t221 -142q109 0 179 78t75 203v2z" />
<glyph unicode="&#xf1;" horiz-adv-x="1173" d="M360 686v-416q0 -106 33 -152t105 -46l28 2v-74h-489v74h14q72 -2 104.5 44t32.5 150v455l-139 78v47l275 96h36v-174l47 47q19 20 37 35q10 8 22.5 16.5t27.5 16.5q2 0 5 2t7 4q33 18 70.5 29.5t76.5 17.5q14 2 28.5 3t29.5 1q66 0 124 -24.5t93 -65.5l3 -3l3 -3 q35 -45 46 -102.5t11 -180.5v-293q0 -106 33 -152t104 -46l11 2v-74h-484v74h27q72 -2 104.5 44t32.5 150v277q0 133 -46 196.5t-144 63.5h-12h-11q-57 -6 -116.5 -34t-129.5 -87v2zM299 1032h-33q4 123 53.5 190.5t137.5 67.5q8 0 16 -1t16 -1q33 -6 70 -23.5t94 -56.5 q47 -33 77 -45t50 -12q41 0 61.5 30.5t32.5 108.5l31 2q2 -6 2 -11v-9q0 -106 -54 -176t-138 -70q-39 0 -87 20.5t-108 59.5q-47 33 -70.5 45t-41.5 14q-4 2 -9 2h-8q-35 0 -55.5 -24.5t-30.5 -81.5q-2 -6 -3 -13.5t-3 -17.5v2z" />
<glyph unicode="&#xf2;" horiz-adv-x="1110" d="M88 469q0 199 133 336t326 137q209 0 343 -133t134 -342t-133 -349.5t-330 -140.5q-193 0 -333 145.5t-140 344.5v2zM535 868h-11q-117 -2 -179 -84t-62 -237q0 -39 4 -79t12 -81q35 -162 109.5 -249t177.5 -87q115 0 184.5 80t69.5 213q0 16 -1 34.5t-1 35.5 q-8 82 -30 160.5t-56 146.5q-37 72 -90.5 107.5t-126.5 37.5v2zM334 1393h223l105 -346h-35z" />
<glyph unicode="&#xf3;" horiz-adv-x="1110" d="M88 469q0 199 133 336t326 137q209 0 343 -133t134 -342t-133 -349.5t-330 -140.5q-193 0 -333 145.5t-140 344.5v2zM535 868h-11q-117 -2 -179 -84t-62 -237q0 -39 4 -79t12 -81q35 -162 109.5 -249t177.5 -87q115 0 184.5 80t69.5 213q0 16 -1 34.5t-1 35.5 q-8 82 -30 160.5t-56 146.5q-37 72 -90.5 107.5t-126.5 37.5v2zM778 1393l-293 -346h-34l104 346h223z" />
<glyph unicode="&#xf4;" horiz-adv-x="1110" d="M88 469q0 199 133 336t326 137q209 0 343 -133t134 -342t-133 -349.5t-330 -140.5q-193 0 -333 145.5t-140 344.5v2zM535 868h-11q-117 -2 -179 -84t-62 -237q0 -39 4 -79t12 -81q35 -162 109.5 -249t177.5 -87q115 0 184.5 80t69.5 213q0 16 -1 34.5t-1 35.5 q-8 82 -30 160.5t-56 146.5q-37 72 -90.5 107.5t-126.5 37.5v2zM463 1368h184l191 -330h-31l-272 211l-230 -211h-31z" />
<glyph unicode="&#xf5;" horiz-adv-x="1110" d="M88 469q0 199 133 336t326 137q209 0 343 -133t134 -342t-133 -349.5t-330 -140.5q-193 0 -333 145.5t-140 344.5v2zM535 868h-11q-117 -2 -179 -84t-62 -237q0 -39 4 -79t12 -81q35 -162 109.5 -249t177.5 -87q115 0 184.5 80t69.5 213q0 16 -1 34.5t-1 35.5 q-8 82 -30 160.5t-56 146.5q-37 72 -90.5 107.5t-126.5 37.5v2zM268 1032h-32q4 123 53 190.5t137 67.5q8 0 16.5 -1t16.5 -1q33 -6 69.5 -23.5t94.5 -56.5q47 -33 76.5 -45t50.5 -12q41 0 61 30.5t33 108.5l30 2q2 -6 3 -11v-9q0 -106 -54.5 -176t-138.5 -70 q-39 0 -87 20.5t-108 59.5q-47 33 -70.5 45t-41.5 14q-4 2 -8 2h-9q-35 0 -55 -24.5t-31 -81.5q-2 -6 -3 -13.5t-3 -17.5v2z" />
<glyph unicode="&#xf6;" horiz-adv-x="1110" d="M88 469q0 199 133 336t326 137q209 0 343 -133t134 -342t-133 -349.5t-330 -140.5q-193 0 -333 145.5t-140 344.5v2zM535 868h-11q-117 -2 -179 -84t-62 -237q0 -39 4 -79t12 -81q35 -162 109.5 -249t177.5 -87q115 0 184.5 80t69.5 213q0 16 -1 34.5t-1 35.5 q-8 82 -30 160.5t-56 146.5q-37 72 -90.5 107.5t-126.5 37.5v2zM379 1274q45 -2 76.5 -34t31.5 -77t-31.5 -76.5t-76.5 -31.5t-77 31.5t-32 76.5t32 77t77 32v2zM731 1274q47 -2 78 -34t31 -77t-31 -76.5t-78 -31.5q-45 0 -76.5 31.5t-31.5 76.5t31.5 77t76.5 32v2z" />
<glyph unicode="&#xf7;" />
<glyph unicode="&#xf8;" horiz-adv-x="1110" d="M131 29l88 104q-63 74 -97 159t-34 179q0 197 133 334t324 137q82 0 156.5 -22.5t138.5 -67.5l80 94l59 -49l-80 -94q59 -66 91 -152t32 -186q0 -207 -132 -347.5t-329 -140.5q-80 0 -149.5 24t-132.5 75l-86 -96zM778 662l-405 -472l4 -6q43 -70 91 -101.5t107 -31.5 q115 0 191 83t76 208q0 33 -3 67.5t-10 69.5q-8 49 -21 95.5t-30 84.5v3zM334 266l407 473q-39 63 -92 95t-123 32q-117 0 -180 -78.5t-63 -228.5q0 -82 13 -157.5t38 -137.5v2z" />
<glyph unicode="&#xf9;" horiz-adv-x="1173" d="M983 922v-670q0 -96 13.5 -123t60.5 -27q10 0 20 1t23 3l24 9v-80l-311 -58v158q-51 -47 -98 -78.5t-94 -52.5q-37 -12 -75 -19.5t-77 -7.5q-90 0 -154.5 33t-93.5 96q-12 29 -19 58t-9 57v94v314q0 119 -29 156.5t-119 37.5l-16 2v74l336 23v-521q0 -160 39.5 -220 t144.5 -60q27 0 50.5 3t47.5 11q39 10 79 32.5t87 59.5v402q0 119 -28.5 156.5t-120.5 37.5l-29 2v74zM365 1393h223l104 -346h-35z" />
<glyph unicode="&#xfa;" horiz-adv-x="1173" d="M983 922v-670q0 -96 13.5 -123t60.5 -27q10 0 20 1t23 3l24 9v-80l-311 -58v158q-51 -47 -98 -78.5t-94 -52.5q-37 -12 -75 -19.5t-77 -7.5q-90 0 -154.5 33t-93.5 96q-12 29 -19 58t-9 57v94v314q0 119 -29 156.5t-119 37.5l-16 2v74l336 23v-521q0 -160 39.5 -220 t144.5 -60q27 0 50.5 3t47.5 11q39 10 79 32.5t87 59.5v402q0 119 -28.5 156.5t-120.5 37.5l-29 2v74zM809 1393l-293 -346h-35l105 346h223z" />
<glyph unicode="&#xfb;" horiz-adv-x="1173" d="M983 922v-670q0 -96 13.5 -123t60.5 -27q10 0 20 1t23 3l24 9v-80l-311 -58v158q-51 -47 -98 -78.5t-94 -52.5q-37 -12 -75 -19.5t-77 -7.5q-90 0 -154.5 33t-93.5 96q-12 29 -19 58t-9 57v94v314q0 119 -29 156.5t-119 37.5l-16 2v74l336 23v-521q0 -160 39.5 -220 t144.5 -60q27 0 50.5 3t47.5 11q39 10 79 32.5t87 59.5v402q0 119 -28.5 156.5t-120.5 37.5l-29 2v74zM494 1368h184l190 -330h-30l-273 211l-229 -211h-31z" />
<glyph unicode="&#xfc;" horiz-adv-x="1173" d="M983 922v-670q0 -96 13.5 -123t60.5 -27q10 0 20 1t23 3l24 9v-80l-311 -58v158q-51 -47 -98 -78.5t-94 -52.5q-37 -12 -75 -19.5t-77 -7.5q-90 0 -154.5 33t-93.5 96q-12 29 -19 58t-9 57v94v314q0 119 -29 156.5t-119 37.5l-16 2v74l336 23v-521q0 -160 39.5 -220 t144.5 -60q27 0 50.5 3t47.5 11q39 10 79 32.5t87 59.5v402q0 119 -28.5 156.5t-120.5 37.5l-29 2v74zM412 1274q45 -2 76.5 -34t31.5 -77t-31.5 -76.5t-76.5 -31.5t-77 31.5t-32 76.5t32 77t77 32v2zM764 1274q47 -2 77.5 -34t30.5 -77t-30.5 -76.5t-77.5 -31.5 q-45 0 -77 31.5t-32 76.5t32 77t77 32v2z" />
<glyph unicode="&#xfd;" />
<glyph unicode="&#xfe;" horiz-adv-x="1148" d="M346 84v-207q0 -102 33 -148t106 -46h37v-74h-497v74h12q74 0 106.5 46t32.5 148v1329l-145 84v35l264 105h51v-590l30 25l30 26q63 51 129.5 74.5t144.5 23.5q168 0 273.5 -120.5t105.5 -313.5q0 -219 -138.5 -374.5t-334.5 -155.5q-20 0 -40 2l-40 4q-41 6 -81 19 t-79 32v2zM346 756v-307q0 -80 4 -121t21 -74q6 -8 11 -17l11 -20q31 -51 87.5 -79.5t121.5 -28.5q133 0 208 93t75 255q0 174 -82 282.5t-215 108.5q-29 0 -59.5 -6t-61.5 -19q-31 -12 -61.5 -29.5t-59.5 -39.5v2z" />
<glyph unicode="&#xff;" horiz-adv-x="980" d="M477 -10l-327 737l-11.5 23.5t-11.5 21.5q-23 41 -47.5 57.5t-59.5 16.5l-16 2v74h447v-74q-63 -4 -93 -22.5t-30 -55.5q0 -14 5 -32.5t15 -43.5l213 -485l176 448q10 20 14.5 41t4.5 37q0 51 -33 79t-98 32v76h354v-74q-49 -10 -81 -42t-56 -97l-31 -80l-315 -801 q-45 -113 -111 -167t-160 -54q-72 0 -117 32.5t-45 86.5q0 35 26 59.5t61 24.5q8 0 14 -1.5l14 -3.5q10 -4 20.5 -10t22.5 -16l23.5 -19.5t19.5 -11.5q6 -2 14.5 -3t18.5 -1q49 0 85 39t69 129zM315 1274q45 -2 77 -34t32 -77t-32 -76.5t-77 -31.5t-76.5 31.5t-31.5 76.5 t31.5 77t76.5 32v2zM668 1274q47 -2 77.5 -34t30.5 -77t-30.5 -76.5t-77.5 -31.5q-45 0 -77 31.5t-32 76.5t32 77t77 32v2z" />
<glyph unicode="&#x152;" horiz-adv-x="2111" d="M1393 776h153q117 -2 161 40t52 159l94 2v-504h-94q-18 125 -64 169t-161 44l-137 2v-6q0 -188 -77 -330.5t-247 -265.5v-2h488q92 -2 144 10t95 47q10 8 20.5 17.5t20.5 19.5l40 45q19 23 36 47q4 4 15.5 22.5t31.5 45.5l12 18h84l-69 -356h-1155q-125 0 -202 10 t-145 37q-10 4 -19 9t-19 10q-45 23 -88.5 56.5t-83.5 74.5q-94 102 -140.5 229t-46.5 281q0 213 95.5 375.5t269.5 244.5q2 2 5 3t5 1q74 35 154.5 49.5t195.5 14.5l1139 2l12 -320h-76l-8 19l-46 84.5t-38 56.5q-18 20 -36.5 31.5t-43.5 19.5q-37 12 -85 17.5t-119 5.5 l-453 2v-4q141 -76 226 -212t104 -317v-4zM340 780q0 -61 6 -119.5t21 -115.5q6 -31 15 -59.5l19 -57.5q59 -168 153.5 -254t215.5 -86q164 0 268.5 157.5t104.5 401.5q0 281 -120 473.5t-296 192.5q-70 0 -133.5 -29t-116.5 -82q-70 -72 -103.5 -175t-33.5 -249v2z" />
<glyph unicode="&#x153;" horiz-adv-x="1556" d="M1481 571h-580q4 -117 23.5 -193.5t58.5 -125.5q33 -43 87 -72.5t112 -38.5q10 0 20 -1t21 -1q72 0 131 31t104 90l43 -27q-47 -117 -143 -186.5t-209 -69.5q-92 0 -174 39t-144 111q-70 -74 -153.5 -112t-175.5 -38q-176 0 -298 137.5t-122 340.5q0 207 125 346t309 139 q96 0 172 -34t143 -109q59 78 126 110.5t167 32.5q158 0 247 -92t110 -279v2zM270 539q0 -109 18.5 -209.5t49.5 -163.5q29 -57 76 -86t108 -29q47 0 86 17.5t68 54.5q35 41 49 98.5t14 151.5q0 233 -65.5 363t-184.5 130q-106 0 -162.5 -85t-56.5 -244v2zM903 645h373 q-16 115 -62.5 168t-132.5 53q-78 0 -123 -57t-55 -166v2z" />
<glyph unicode="&#x178;" horiz-adv-x="1472" d="M844 586v-273q0 -131 43 -184t145 -53l17 2v-78h-631v78h20q102 -2 145.5 51t43.5 182v275l-402 588l-43 57q-18 25 -35 39q-27 23 -56.5 32t-76.5 15v80h613v-78q-92 -8 -125 -25.5t-33 -64.5q0 -20 8 -41t23 -43l311 -451l227 334q33 45 47.5 78t18.5 61v9v8 q0 63 -35 94t-121 39v80h506v-78q-25 -4 -45 -11.5t-39 -19.5q-33 -18 -67.5 -58t-83.5 -112zM561 1714q45 -2 77 -33.5t32 -76.5t-32 -77t-77 -32t-76.5 32t-31.5 77t31.5 76.5t76.5 31.5v2zM913 1714q47 -2 78 -33.5t31 -76.5t-30.5 -77t-78.5 -32q-45 0 -76.5 32 t-31.5 77t31.5 76.5t76.5 31.5v2z" />
<glyph unicode="&#x2c6;" horiz-adv-x="681" d="M53 1032h-33q4 123 53.5 190.5t137.5 67.5q8 0 16.5 -1t16.5 -1q33 -6 69.5 -23.5t94.5 -56.5q47 -33 76.5 -45t50.5 -12q41 0 61 30.5t33 108.5l30 2q2 -6 3 -11v-9q0 -106 -54.5 -176t-138.5 -70q-39 0 -87 20.5t-108 59.5q-47 33 -70.5 45t-41.5 14q-4 2 -8 2h-9 q-35 0 -55 -24.5t-31 -81.5q-2 -6 -3 -13.5t-3 -17.5v2z" />
<glyph unicode="&#x2dc;" horiz-adv-x="681" d="M248 1368h184l191 -330h-31l-273 211l-229 -211h-31z" />
<glyph unicode="&#x2000;" horiz-adv-x="925" />
<glyph unicode="&#x2001;" horiz-adv-x="1851" />
<glyph unicode="&#x2002;" horiz-adv-x="925" />
<glyph unicode="&#x2003;" horiz-adv-x="1851" />
<glyph unicode="&#x2004;" horiz-adv-x="616" />
<glyph unicode="&#x2005;" horiz-adv-x="462" />
<glyph unicode="&#x2006;" horiz-adv-x="307" />
<glyph unicode="&#x2007;" horiz-adv-x="307" />
<glyph unicode="&#x2008;" horiz-adv-x="231" />
<glyph unicode="&#x2009;" horiz-adv-x="368" />
<glyph unicode="&#x200a;" horiz-adv-x="102" />
<glyph unicode="&#x2010;" horiz-adv-x="747" d="M59 408v155h629v-155h-629z" />
<glyph unicode="&#x2011;" horiz-adv-x="747" d="M59 408v155h629v-155h-629z" />
<glyph unicode="&#x2012;" horiz-adv-x="747" d="M59 408v155h629v-155h-629z" />
<glyph unicode="&#x2013;" horiz-adv-x="1024" d="M-12 559h1048v-94h-1048v94z" />
<glyph unicode="&#x2014;" horiz-adv-x="2048" d="M-12 559h2072v-94h-2072v94z" />
<glyph unicode="&#x2018;" horiz-adv-x="598" d="M473 1421l31 -67q-16 -8 -30.5 -13.5l-29.5 -11.5q-88 -39 -124.5 -81t-36.5 -103q0 -33 16 -51.5t45 -18.5l8 2h10q63 -2 96.5 -29.5t33.5 -80.5t-34 -85t-91 -32q-88 0 -143.5 66.5t-55.5 166.5q0 88 47 165t129 120l23 11l18 10q6 2 11 5t12 5l28 9l37 11v2z" />
<glyph unicode="&#x2019;" horiz-adv-x="598" d="M178 852l-28 68q20 6 39.5 14l35.5 14q80 39 113 79t33 97q0 35 -16.5 52.5t-45.5 17.5h-4h-4h-5h-5q-63 0 -96 28.5t-33 80.5q0 53 33.5 84.5t91.5 31.5q86 0 142 -65.5t56 -167.5q0 -86 -47 -163t-129 -122q-12 -6 -21 -11t-20 -9l-9 -4.5t-11 -4.5l-30 -10 q-17 -6 -40 -12v2z" />
<glyph unicode="&#x201a;" />
<glyph unicode="&#x201c;" horiz-adv-x="1044" d="M467 1421l31 -67q-16 -8 -30.5 -13.5l-29.5 -11.5q-90 -39 -126 -81t-36 -103q0 -33 15.5 -51.5t46.5 -18.5l8 2h10q61 -2 95 -29.5t34 -80.5t-33.5 -85t-93.5 -32q-86 0 -142 66.5t-56 166.5q0 88 48 165t128 120l21.5 11l19.5 10q6 2 11 4t11 6q14 4 29.5 9t38.5 11v2z M926 1421l28 -67q-16 -8 -30.5 -13.5t-28.5 -11.5q-88 -39 -124 -81t-36 -103q0 -33 15.5 -51.5t44.5 -18.5l8 2h10q63 -2 96 -29.5t33 -80.5t-34 -85t-91 -32q-86 0 -142.5 66.5t-56.5 166.5q0 88 47.5 165t129.5 120q12 6 21 11t20 10q6 2 11 4t11 6q14 4 29.5 9t38.5 11 v2z" />
<glyph unicode="&#x201d;" horiz-adv-x="1044" d="M170 852l-31 68q20 6 40 14l36 14q80 39 112.5 79t32.5 97q0 35 -16 52.5t-45 17.5h-4h-3h-4h-4h-3q-63 0 -96 28.5t-33 80.5q0 53 33.5 84.5t90.5 31.5q88 0 144.5 -65.5t56.5 -167.5q0 -86 -48 -163t-130 -122l-23 -11l-18 -9q-6 -2 -10 -4.5t-10 -4.5l-28.5 -10 t-39.5 -12v2zM629 852l-31 68q20 6 39.5 14t36.5 14q80 39 112.5 79t32.5 97q0 35 -16.5 52.5t-44.5 17.5h-4h-4h-6h-5q-63 0 -96 28.5t-33 80.5q0 53 34 84.5t91 31.5q88 0 143.5 -65.5t55.5 -167.5q0 -86 -47 -163t-129 -122l-23 -11l-18 -9q-6 -2 -10.5 -4.5t-10.5 -4.5 l-28.5 -10t-38.5 -12v2z" />
<glyph unicode="&#x201e;" horiz-adv-x="1044" d="M158 -233l-31 65l40 16l36 15q80 39 112.5 79t32.5 95q0 35 -16.5 52t-44.5 17h-4h-3h-5h-4h-3q-63 0 -96 29t-33 82t34 84t91 31q88 0 144.5 -65.5t56.5 -168.5q0 -86 -48 -161.5t-130 -118.5l-23 -12l-18 -9l-15 -7q-6 -3 -14 -5q-12 -4 -26.5 -8t-32.5 -10zM616 -233 l-30 65l40 16l36 15q80 39 112.5 79t32.5 95q0 35 -16.5 52t-45.5 17h-4h-3h-4h-4h-3q-63 0 -96 29t-33 82t34 84t91 31q88 0 143.5 -65.5t55.5 -168.5q0 -86 -47.5 -161.5t-129.5 -118.5l-22 -12l-18 -9l-15 -7q-6 -3 -14 -5q-12 -4 -27 -8t-33 -10z" />
<glyph unicode="&#x2022;" horiz-adv-x="716" d="M358 928q104 -2 177 -76t73 -176q0 -104 -72.5 -178t-177.5 -74q-104 0 -178 73.5t-74 178.5q0 102 74 176t178 74v2z" />
<glyph unicode="&#x2026;" horiz-adv-x="2048" d="M215 102q0 51 38 88t89 37q53 0 90 -36.5t37 -90.5q0 -51 -37 -88t-90 -37q-51 0 -89 37t-38 88v2zM897 102q0 51 38 88t89 37q53 0 90 -36.5t37 -90.5q0 -51 -37 -88t-90 -37q-51 0 -89 37t-38 88v2zM1579 102q0 51 38 88t89 37q53 0 90 -36.5t37 -90.5q0 -51 -37 -88 t-90 -37q-51 0 -89 37t-38 88v2z" />
<glyph unicode="&#x202f;" horiz-adv-x="368" />
<glyph unicode="&#x2039;" horiz-adv-x="512" d="M250 516l184 -450h-49l-303 450l303 457h49z" />
<glyph unicode="&#x203a;" horiz-adv-x="512" d="M252 516l-184 457h51l301 -457l-301 -450h-51z" />
<glyph unicode="&#x205f;" horiz-adv-x="462" />
<glyph unicode="&#x2122;" horiz-adv-x="2007" d="M51 1356h729l21 -201h-33q-14 78 -56 108.5t-139 30.5l-73 2v-579q0 -84 17.5 -107.5t86.5 -27.5v-33h-375v35q70 6 85.5 26.5t15.5 102.5v583h-76q-94 -2 -134 -32.5t-57 -110.5l-32 2zM1157 1356l273 -572l264 572h278v-37q-72 -4 -90 -26.5t-18 -110.5v-465 q0 -88 16 -109.5t92 -25.5v-33h-397v35q78 2 98.5 24.5t20.5 104.5v493h-4l-301 -657h-33l-305 649h-4v-481q0 -84 18 -109.5t76 -25.5l37 2v-35h-308v35q74 -2 93.5 21.5t19.5 107.5v469q0 90 -18.5 112.5t-94.5 22.5v39h287z" />
<glyph unicode="&#xe000;" horiz-adv-x="920" d="M0 920h920v-920h-920v920z" />
<glyph unicode="&#xfb01;" horiz-adv-x="1191" d="M1018 944v-674q0 -102 28.5 -150t90.5 -48l8 2v-74h-447v74h9h6q71 0 101 44q32 46 32 150v451l-156 82v37l279 106h49zM813 1313q0 45 33 76.5t78 31.5q47 0 78.5 -31.5t31.5 -78.5q0 -45 -31.5 -79t-78.5 -34q-45 0 -78 34t-33 79v2zM387 831v-561q0 -119 38 -158.5 t148 -39.5l27 2v-74h-551v74h29h6q69 0 100 44q33 46 33 150v563h-168v91h47q9 0 17 -1q57 0 74 13q19 14 22 67q6 100 30.5 173t67.5 124q53 63 133 98.5t168 35.5q100 0 165 -44.5t65 -109.5q0 -39 -25 -62.5t-65 -23.5q-16 0 -28.5 3t-25.5 13q-10 6 -19 16.5l-22 26.5 q-29 37 -48 56.5t-38 27.5q-8 4 -17 6t-20 2q-68 0 -105.5 -56t-37.5 -159v-206h246v-91h-246z" />
<glyph unicode="&#xfb02;" horiz-adv-x="1191" d="M1004 1423v-1153q0 -102 29.5 -150t92.5 -48l7 2v-74h-441v74h6h6q67 0 98 45q32 47 32 149v936l-142 78v45l271 96h41zM387 831v-561q0 -119 38 -158.5t148 -39.5l27 2v-74h-551v74h29h6q69 0 100 44q33 46 33 150v563h-168v91h47q9 0 17 -1q57 0 74 13q19 14 22 67 q6 100 30.5 173t67.5 124q53 63 133 98.5t168 35.5q100 0 165 -44.5t65 -109.5q0 -39 -25 -62.5t-65 -23.5q-16 0 -28.5 3t-25.5 13q-10 6 -19 16.5l-22 26.5q-29 37 -48 56.5t-38 27.5q-8 4 -17 6t-20 2q-68 0 -105.5 -56t-37.5 -159v-206h246v-91h-246z" />
<glyph unicode="&#xfb03;" horiz-adv-x="1828" d="M1655 944v-674q0 -102 28.5 -150t90.5 -48l8 2v-74h-447v74h9h6q71 0 101 44q32 46 32 150v451l-156 82v37l279 106h49zM1450 1313q0 45 33 76.5t78 31.5q47 0 78.5 -31.5t31.5 -78.5q0 -45 -31.5 -79t-78.5 -34q-45 0 -78 34t-33 79v2zM1024 831v-561q0 -119 38 -158.5 t148 -39.5l27 2v-74h-551v74h29h6q69 0 100 44q33 46 33 150v563h-168v91h47q9 0 17 -1q57 0 74 13q19 14 22 67q6 100 30.5 173t67.5 124q53 63 133 98.5t168 35.5q100 0 165 -44.5t65 -109.5q0 -39 -25 -62.5t-65 -23.5q-16 0 -28.5 3t-25.5 13q-10 6 -19 16.5l-22 26.5 q-29 37 -48 56.5t-38 27.5q-8 4 -17 6t-20 2q-68 0 -105.5 -56t-37.5 -159v-206h246v-91h-246zM387 831v-561q0 -119 38 -158.5t148 -39.5l27 2v-74h-551v74h29h6q69 0 100 44q33 46 33 150v563h-168v91h47q9 0 17 -1q57 0 74 13q19 14 22 67q6 100 30.5 173t67.5 124 q53 63 133 98.5t168 35.5q100 0 165 -44.5t65 -109.5q0 -39 -25 -62.5t-65 -23.5q-16 0 -28.5 3t-25.5 13q-10 6 -19 16.5l-22 26.5q-29 37 -48 56.5t-38 27.5q-8 4 -17 6t-20 2q-68 0 -105.5 -56t-37.5 -159v-206h246v-91h-246z" />
<glyph unicode="&#xfb04;" horiz-adv-x="1828" d="M1641 1423v-1153q0 -102 29.5 -150t92.5 -48l7 2v-74h-441v74h6h6q67 0 98 45q32 47 32 149v936l-142 78v45l271 96h41zM1024 831v-561q0 -119 38 -158.5t148 -39.5l27 2v-74h-551v74h29h6q69 0 100 44q33 46 33 150v563h-168v91h47q9 0 17 -1q57 0 74 13q19 14 22 67 q6 100 30.5 173t67.5 124q53 63 133 98.5t168 35.5q100 0 165 -44.5t65 -109.5q0 -39 -25 -62.5t-65 -23.5q-16 0 -28.5 3t-25.5 13q-10 6 -19 16.5l-22 26.5q-29 37 -48 56.5t-38 27.5q-8 4 -17 6t-20 2q-68 0 -105.5 -56t-37.5 -159v-206h246v-91h-246zM387 831v-561 q0 -119 38 -158.5t148 -39.5l27 2v-74h-551v74h29h6q69 0 100 44q33 46 33 150v563h-168v91h47q9 0 17 -1q57 0 74 13q19 14 22 67q6 100 30.5 173t67.5 124q53 63 133 98.5t168 35.5q100 0 165 -44.5t65 -109.5q0 -39 -25 -62.5t-65 -23.5q-16 0 -28.5 3t-25.5 13 q-10 6 -19 16.5l-22 26.5q-29 37 -48 56.5t-38 27.5q-8 4 -17 6t-20 2q-68 0 -105.5 -56t-37.5 -159v-206h246v-91h-246z" />
</font>
</defs>
</svg>
